<svg width="44" height="36" viewBox="0 0 44 36" fill="none" xmlns="http://www.w3.org/2000/svg">
<path d="M32.0693 12.557C29.4792 12.8475 28.0583 17.1678 27.9418 17.509C28.0024 17.3476 28.3518 16.656 30.1593 15.7338C32.2277 14.6688 36.3646 16.9418 36.3646 16.9418C34.4592 18.6017 30.9513 18.7539 28.0909 18.4496C25.2305 18.1453 25.3843 12.1052 25.2305 7.42527C25.0768 2.74537 24.1125 3.19722 24.1125 3.19722C24.1125 3.19722 24.2709 1.07628 22.2071 10.745C20.1434 20.4137 9 22.8252 9 22.8252C15.2052 23.7473 19.6589 20.8656 21.2474 17.8456C22.836 14.8255 23.9494 8.47652 23.9494 8.47652C23.9494 17.5459 24.746 19.8097 27.1359 20.8656C29.5258 21.9215 34.1238 20.4045 37.478 19.2057C38.9677 18.7359 40.5401 18.5789 42.0946 18.7446L44 15.8768C44 15.8768 41.2934 16.0243 39.388 15.2728C37.4826 14.5212 34.776 12.2573 32.0693 12.557Z" fill="#3A683D"/>
<path d="M12.6754 17.988C13.3107 16.5167 12.2116 8.53957 12.2116 6.48342C12.1734 5.35485 12.4455 4.23677 13 3.24396C11.8963 2.65456 11.1079 0 11.1079 0C10.68 0.812425 10.203 1.59966 9.67954 2.35761C9.67954 2.35761 12.847 16.9577 10.7833 18.7214C8.71958 20.4851 4.61074 20.791 2.23633 19.3198C-0.138072 17.8485 2.38937 13.1198 2.38937 13.1198C0.965657 14.7395 -0.142709 16.6607 0.0149659 18.7214C0.172641 20.782 1.75867 22.8472 5.57998 22.9957C9.40129 23.1441 12.0447 19.4502 12.6754 17.988Z" fill="#3A683D"/>
<path d="M16.6106 10.9546C18.1099 12.1763 18.9335 16 18.9335 16C19.7331 7.44341 13.0604 5 13.0604 5C13.0604 5 12.9245 5.4663 13.0604 7.74184C13.1963 10.0174 15.1034 9.73294 16.6106 10.9546Z" fill="#3A683D"/>
<path d="M4 35.9844V35.9588V35.7027C4.00449 35.7 4.00958 35.6986 4.01477 35.6986C4.01995 35.6986 4.02505 35.7 4.02954 35.7027C4.12951 35.7102 4.22986 35.7102 4.32983 35.7027C4.42687 35.689 4.52047 35.6559 4.60551 35.6054C4.68801 35.5511 4.75713 35.4774 4.80734 35.3903C4.86591 35.2755 4.89315 35.1462 4.88611 35.0165V30.054C4.8883 29.9571 4.8698 29.8609 4.83196 29.7723C4.79965 29.6981 4.74861 29.6344 4.68427 29.5879C4.61518 29.539 4.53861 29.5027 4.45782 29.4804C4.35868 29.4589 4.25841 29.4435 4.15753 29.4343C4.15753 29.4343 4.12307 29.4343 4.12307 29.3985V29.0451C4.12307 29.0144 4.12307 29.0041 4.15261 29.0041H6.98323C6.9886 29.0014 6.99449 29 7.00046 29C7.00643 29 7.01232 29.0014 7.01769 29.0041C7.02002 29.0125 7.02002 29.0214 7.01769 29.0297V29.296C7.01769 29.296 7.01769 29.3268 6.97831 29.3268C6.88669 29.3164 6.79425 29.3164 6.70263 29.3268C6.61733 29.3415 6.53646 29.3766 6.46633 29.4292C6.39622 29.484 6.34038 29.5562 6.30388 29.6392C6.26 29.753 6.23987 29.8751 6.24481 29.9976V32.0461C6.23728 32.0676 6.23728 32.0912 6.24481 32.1127C6.26385 32.1202 6.28484 32.1202 6.30388 32.1127H9.64155C9.65247 32.1159 9.66399 32.1159 9.67494 32.1129C9.6859 32.1099 9.69589 32.104 9.7039 32.0956C9.71191 32.0873 9.71765 32.0769 9.72053 32.0655C9.72342 32.0541 9.72334 32.0421 9.72032 32.0308V29.9106C9.72147 29.804 9.68261 29.7011 9.61202 29.6238C9.53701 29.5446 9.44629 29.4834 9.34618 29.4446C9.23552 29.3977 9.11981 29.3651 9.00159 29.3472L8.65699 29.3012C8.65699 29.3012 8.61761 29.3012 8.61761 29.2653V29.0451C8.61761 29.0144 8.61761 29.0041 8.65207 29.0041H11.8421C11.8465 29.0014 11.8516 29 11.8568 29C11.862 29 11.8671 29.0014 11.8716 29.0041C11.8716 29.0041 11.8716 29.0041 11.8716 29.0297V29.296C11.8716 29.296 11.8716 29.3268 11.8322 29.3268C11.739 29.3162 11.6449 29.3162 11.5516 29.3268C11.4635 29.3424 11.3796 29.3773 11.3055 29.4292C11.2306 29.4815 11.171 29.5541 11.1332 29.6392C11.0875 29.7525 11.0656 29.8748 11.0692 29.9976V34.8987C11.0686 34.9774 11.0819 35.0555 11.1086 35.1291C11.1351 35.2008 11.1716 35.2681 11.2169 35.3289C11.2846 35.4109 11.3709 35.4743 11.4679 35.5132C11.6267 35.5678 11.7929 35.5955 11.9602 35.5952C11.9656 35.5943 11.9711 35.5947 11.9762 35.5965C11.9814 35.5982 11.9861 35.6012 11.9899 35.6052C11.9937 35.6092 11.9966 35.6141 11.9983 35.6195C12 35.6248 12.0004 35.6306 11.9996 35.6361V35.9024C12.0004 35.908 12 35.9137 11.9983 35.9191C11.9966 35.9245 11.9937 35.9293 11.9899 35.9333C11.9861 35.9373 11.9814 35.9403 11.9762 35.9421C11.9711 35.9438 11.9656 35.9443 11.9602 35.9434H8.51423C8.50974 35.9461 8.50464 35.9475 8.49946 35.9475C8.49427 35.9475 8.48918 35.9461 8.48469 35.9434V35.9178V35.7027C8.48918 35.7 8.49427 35.6986 8.49946 35.6986C8.50464 35.6986 8.50974 35.7 8.51423 35.7027C8.63065 35.7091 8.74732 35.7091 8.86375 35.7027C8.99976 35.692 9.13382 35.6627 9.2625 35.6156C9.38366 35.5764 9.49587 35.5119 9.59232 35.4262C9.63783 35.3817 9.67366 35.3276 9.69743 35.2675C9.72121 35.2075 9.73237 35.1428 9.73016 35.0779V32.9424C9.73319 32.931 9.73326 32.919 9.73038 32.9076C9.7275 32.8962 9.72176 32.8858 9.71375 32.8775C9.70574 32.8692 9.69574 32.8632 9.68479 32.8602C9.67384 32.8572 9.66231 32.8573 9.6514 32.8604H6.32357C6.30454 32.8529 6.28353 32.8529 6.2645 32.8604C6.25697 32.8819 6.25697 32.9055 6.2645 32.927V35.1138C6.26084 35.2126 6.28478 35.3104 6.33342 35.3954C6.38229 35.472 6.44814 35.5352 6.52541 35.5798C6.60817 35.6275 6.69802 35.6603 6.79124 35.6771C6.89674 35.6977 7.00387 35.708 7.11122 35.7078H7.14076V35.9741C7.14265 35.9826 7.14265 35.9913 7.14076 35.9997H4.02954C4.02371 36.0005 4.01777 35.9995 4.01251 35.9968C4.00725 35.994 4.00289 35.9897 4 35.9844Z" fill="#3A683D"/>
<path d="M12 35.8041C12 35.7782 12 35.7678 12.0323 35.7678L12.2059 35.7367C12.2765 35.7188 12.3445 35.6873 12.4078 35.6435C12.486 35.5895 12.5548 35.5154 12.6097 35.4258C12.6866 35.3116 12.7431 35.1772 12.7752 35.032L14.354 29.1917C14.3606 29.163 14.3606 29.1324 14.354 29.1036C14.3509 29.0779 14.3509 29.0517 14.354 29.0259V29H15.4886H15.5128C15.5128 29 15.5128 29 15.5128 29.0311L17.1723 34.975C17.193 35.0561 17.2173 35.1357 17.245 35.2133C17.2675 35.2779 17.2959 35.3388 17.3297 35.3947C17.3648 35.4504 17.4071 35.4978 17.4549 35.5346C17.5151 35.5834 17.5786 35.625 17.6447 35.659C17.6927 35.6903 17.7426 35.7163 17.7941 35.7367C17.8527 35.7622 17.9139 35.7761 17.9758 35.7782C17.9795 35.7755 17.9836 35.774 17.9879 35.774C17.9921 35.774 17.9963 35.7755 18 35.7782V35.9699V35.9958C17.9963 35.9986 17.9921 36 17.9879 36C17.9836 36 17.9795 35.9986 17.9758 35.9958H15.2221C15.2184 35.9986 15.2142 36 15.21 36C15.2057 36 15.2015 35.9986 15.1978 35.9958V35.9699V35.773C15.2015 35.7703 15.2057 35.7688 15.21 35.7688C15.2142 35.7688 15.2184 35.7703 15.2221 35.773H15.2786H15.3997H15.5774C15.6411 35.7656 15.7045 35.7535 15.7672 35.7367C15.8275 35.7186 15.8859 35.6907 15.9408 35.6538C15.9907 35.6209 16.0347 35.575 16.07 35.5191C16.1047 35.4573 16.1231 35.3828 16.1225 35.3066C16.1239 35.2825 16.1239 35.2582 16.1225 35.2341L15.6057 33.4307C15.608 33.4153 15.608 33.3995 15.6057 33.3841C15.598 33.3578 15.5871 33.3333 15.5734 33.3115C15.559 33.2853 15.5413 33.2625 15.5209 33.2441C15.4969 33.2238 15.4688 33.2129 15.4401 33.213H13.9987C13.9686 33.2122 13.939 33.2231 13.9139 33.2441L13.8533 33.3063C13.8384 33.328 13.8261 33.3525 13.817 33.3789C13.8154 33.3926 13.8154 33.4066 13.817 33.4203C13.7322 33.7313 13.6595 33.9955 13.603 34.2132L13.4616 34.7314C13.4213 34.8713 13.393 34.9801 13.3728 35.0527C13.3526 35.1252 13.3365 35.1874 13.3284 35.2237C13.3272 35.2496 13.3272 35.2755 13.3284 35.3014C13.3284 35.3014 13.3284 35.3014 13.3284 35.3325V35.3636C13.3486 35.4487 13.3897 35.5232 13.4455 35.5761C13.5047 35.6314 13.57 35.6751 13.6393 35.7056C13.7131 35.736 13.7887 35.7585 13.8654 35.773C13.9421 35.773 14.0108 35.773 14.0713 35.773H14.1723C14.176 35.7703 14.1801 35.7688 14.1844 35.7688C14.1886 35.7688 14.1928 35.7703 14.1965 35.773V35.9699V35.9958C14.1928 35.9986 14.1886 36 14.1844 36C14.1801 36 14.176 35.9986 14.1723 35.9958H12.0525C12.0283 35.9958 12.0202 35.9958 12.0202 35.9544L12 35.8041ZM14.0552 32.4513C14.0517 32.4665 14.0517 32.4827 14.0552 32.4979C14.0534 32.5151 14.0534 32.5325 14.0552 32.5497C14.0505 32.5647 14.0505 32.5814 14.0552 32.5964C14.062 32.6009 14.0697 32.6033 14.0774 32.6033C14.0851 32.6033 14.0927 32.6009 14.0996 32.5964H15.2786C15.2889 32.5978 15.2994 32.5963 15.3092 32.5918C15.319 32.5873 15.3278 32.58 15.3351 32.5705C15.3392 32.5536 15.3392 32.5355 15.3351 32.5186C15.3371 32.5032 15.3371 32.4875 15.3351 32.472C15.3379 32.4584 15.3379 32.4441 15.3351 32.4306L14.8143 30.6013C14.8066 30.5641 14.79 30.5311 14.7668 30.5069C14.7435 30.4827 14.7149 30.4686 14.6851 30.4665C14.6596 30.468 14.6353 30.4808 14.6164 30.5028C14.5877 30.5276 14.5664 30.5641 14.5559 30.6064L14.0552 32.4513Z" fill="#3A683D"/>
<path d="M24 35.8041C24 35.7782 24 35.7678 24.0377 35.7678L24.2402 35.7367C24.3226 35.7188 24.4019 35.6873 24.4758 35.6435C24.567 35.5895 24.6472 35.5154 24.7113 35.4258C24.801 35.3116 24.8669 35.1772 24.9044 35.032L26.7463 29.1917C26.754 29.163 26.754 29.1324 26.7463 29.1036C26.7427 29.0779 26.7427 29.0517 26.7463 29.0259V29H28.07H28.0982C28.0982 29 28.0982 29 28.0982 29.0311L30.0343 34.975C30.0585 35.0561 30.0869 35.1357 30.1191 35.2133C30.1454 35.2779 30.1786 35.3388 30.218 35.3947C30.2589 35.4504 30.3083 35.4978 30.3641 35.5346C30.4343 35.5834 30.5084 35.625 30.5855 35.659C30.6414 35.6903 30.6998 35.7163 30.7598 35.7367C30.8281 35.7622 30.8996 35.7761 30.9717 35.7782C30.976 35.7755 30.9809 35.774 30.9859 35.774C30.9908 35.774 30.9957 35.7755 31 35.7782V35.9699V35.9958C30.9957 35.9986 30.9908 36 30.9859 36C30.9809 36 30.976 35.9986 30.9717 35.9958H27.7591C27.7548 35.9986 27.7499 36 27.745 36C27.74 36 27.7351 35.9986 27.7308 35.9958V35.9699V35.773C27.7351 35.7703 27.74 35.7688 27.745 35.7688C27.7499 35.7688 27.7548 35.7703 27.7591 35.773H27.825H27.9664H28.1736C28.248 35.7656 28.3219 35.7535 28.395 35.7367C28.4654 35.7186 28.5335 35.6907 28.5976 35.6538C28.6558 35.6209 28.7071 35.575 28.7483 35.5191C28.7888 35.4573 28.8102 35.3828 28.8096 35.3066C28.8112 35.2825 28.8112 35.2582 28.8096 35.2341L28.2066 33.4307C28.2094 33.4153 28.2094 33.3995 28.2066 33.3841C28.1977 33.3578 28.185 33.3333 28.1689 33.3115C28.1522 33.2853 28.1315 33.2625 28.1077 33.2441C28.0797 33.2238 28.047 33.2129 28.0135 33.213H26.3318C26.2967 33.2122 26.2622 33.2231 26.2328 33.2441L26.1622 33.3063C26.1448 33.328 26.1305 33.3525 26.1198 33.3789C26.1179 33.3926 26.1179 33.4066 26.1198 33.4203C26.0209 33.7313 25.9361 33.9955 25.8701 34.2132L25.7052 34.7314C25.6581 34.8713 25.6252 34.9801 25.6016 35.0527C25.5781 35.1252 25.5592 35.1874 25.5498 35.2237C25.5484 35.2496 25.5484 35.2755 25.5498 35.3014C25.5498 35.3014 25.5498 35.3014 25.5498 35.3325V35.3636C25.5734 35.4487 25.6213 35.5232 25.6864 35.5761C25.7555 35.6314 25.8317 35.6751 25.9125 35.7056C25.9986 35.736 26.0868 35.7585 26.1763 35.773C26.2658 35.773 26.3459 35.773 26.4166 35.773H26.5343C26.5386 35.7703 26.5435 35.7688 26.5485 35.7688C26.5534 35.7688 26.5583 35.7703 26.5626 35.773V35.9699V35.9958C26.5583 35.9986 26.5534 36 26.5485 36C26.5435 36 26.5386 35.9986 26.5343 35.9958H24.0612C24.033 35.9958 24.0236 35.9958 24.0236 35.9544L24 35.8041ZM26.3977 32.4513C26.3937 32.4665 26.3937 32.4827 26.3977 32.4979C26.3956 32.5151 26.3956 32.5325 26.3977 32.5497C26.3922 32.5647 26.3922 32.5814 26.3977 32.5964C26.4057 32.6009 26.4146 32.6033 26.4236 32.6033C26.4326 32.6033 26.4415 32.6009 26.4495 32.5964H27.825C27.8371 32.5978 27.8493 32.5963 27.8607 32.5918C27.8721 32.5873 27.8825 32.58 27.891 32.5705C27.8957 32.5536 27.8957 32.5355 27.891 32.5186C27.8933 32.5032 27.8933 32.4875 27.891 32.472C27.8942 32.4584 27.8942 32.4441 27.891 32.4306L27.2833 30.6013C27.2744 30.5641 27.255 30.5311 27.2279 30.5069C27.2008 30.4827 27.1674 30.4686 27.1326 30.4665C27.1028 30.468 27.0745 30.4808 27.0525 30.5028C27.019 30.5276 26.9941 30.5641 26.9818 30.6064L26.3977 32.4513Z" fill="#3A683D"/>
<path d="M19 36V35.9742V35.717C19 35.717 19 35.717 19.0288 35.717H19.2014H19.3534C19.4131 35.7065 19.4721 35.6911 19.5301 35.6707C19.5848 35.6541 19.6373 35.6281 19.6863 35.5936C19.7749 35.5357 19.8479 35.4462 19.8959 35.3364C19.9412 35.2287 19.9639 35.1083 19.9616 34.9866V30.0226C19.9634 29.9686 19.9562 29.9148 19.9407 29.8643C19.9251 29.8139 19.9015 29.768 19.8712 29.7294C19.804 29.6548 19.7277 29.594 19.6452 29.5494C19.5606 29.5061 19.4724 29.475 19.3822 29.4568C19.311 29.4513 19.2397 29.4513 19.1685 29.4568H19.0822C19.0777 29.4595 19.0728 29.461 19.0678 29.461C19.0628 29.461 19.0579 29.4595 19.0534 29.4568V29.0299C19.0515 29.0215 19.0515 29.0125 19.0534 29.0041C19.0579 29.0014 19.0628 29 19.0678 29C19.0728 29 19.0777 29.0014 19.0822 29.0041H22.1438C22.1476 29.0014 22.1518 29 22.1562 29C22.1605 29 22.1647 29.0014 22.1685 29.0041C22.1704 29.0125 22.1704 29.0215 22.1685 29.0299V29.2974C22.1685 29.2974 22.1685 29.2974 22.1438 29.2974H21.9712C21.8334 29.2966 21.6958 29.3121 21.5603 29.3436C21.4538 29.3653 21.3492 29.3998 21.2479 29.4465C21.2215 29.455 21.197 29.471 21.1763 29.4933C21.1556 29.5156 21.1393 29.5436 21.1288 29.5751C21.1086 29.6777 21.1003 29.7834 21.1041 29.8889V35.11C21.1074 35.1407 21.1156 35.1703 21.1283 35.1968C21.141 35.2233 21.158 35.2463 21.1781 35.2644C21.1967 35.2886 21.2191 35.3079 21.2438 35.3211C21.2685 35.3344 21.295 35.3413 21.3219 35.3415H22.7151C22.8077 35.3423 22.8992 35.3159 22.9822 35.2644C23.0668 35.2144 23.1455 35.1504 23.2164 35.074C23.2883 34.996 23.3543 34.9099 23.4137 34.8168C23.4753 34.7242 23.5329 34.6368 23.5822 34.5493C23.6315 34.4619 23.6767 34.3899 23.7178 34.3179C23.7482 34.2657 23.7826 34.2175 23.8205 34.1738L23.8699 34.143C23.8901 34.1371 23.9112 34.1371 23.9315 34.143C23.9767 34.143 23.9973 34.143 23.9973 34.2098C24.0009 34.2284 24.0009 34.2478 23.9973 34.2664L23.3356 35.8868C23.3278 35.9125 23.3151 35.9354 23.2986 35.9537C23.2868 35.9693 23.2706 35.9785 23.2534 35.9794H19.0247C19.0229 35.9857 19.0195 35.9911 19.0151 35.9948C19.0106 35.9985 19.0053 36.0003 19 36Z" fill="#3A683D"/>
<path d="M31 35.9843V35.9587V35.7021C31 35.7021 31 35.7021 31.0345 35.7021H31.2416H31.4241C31.4957 35.6916 31.5666 35.6762 31.6362 35.6559C31.7017 35.6392 31.7648 35.6133 31.8236 35.5789C31.9299 35.5211 32.0175 35.4318 32.0751 35.3222C32.1295 35.2148 32.1566 35.0947 32.154 34.9732V30.0204C32.1563 29.966 32.1474 29.9117 32.1278 29.8613C32.1083 29.8108 32.0785 29.7653 32.0405 29.7278C31.9625 29.6523 31.8724 29.5915 31.7742 29.5482C31.6728 29.5049 31.5669 29.4739 31.4586 29.4558C31.3732 29.4503 31.2876 29.4503 31.2022 29.4558H31.0986C31.0986 29.4558 31.069 29.4558 31.0641 29.4558V29.0298C31.0618 29.0214 31.0618 29.0125 31.0641 29.0041C31.0641 29.0041 31.0641 29.0041 31.0986 29.0041H34.7726C34.7771 29.0014 34.7822 29 34.7874 29C34.7926 29 34.7977 29.0014 34.8022 29.0041C34.8045 29.0125 34.8045 29.0214 34.8022 29.0298V29.2967C34.8022 29.2967 34.8022 29.2967 34.7726 29.2967H34.5655C34.4001 29.2957 34.2349 29.3112 34.0723 29.3429C33.9445 29.3645 33.819 29.3989 33.6975 29.4455C33.6658 29.454 33.6364 29.4699 33.6115 29.4922C33.5867 29.5145 33.5672 29.5424 33.5545 29.5738C33.5303 29.6762 33.5203 29.7816 33.5249 29.8869V35.0964C33.5326 35.1571 33.5627 35.2123 33.6088 35.2504C33.6549 35.2978 33.7165 35.3254 33.7814 35.3274H35.4581C35.5692 35.3282 35.679 35.3018 35.7786 35.2504C35.8801 35.2005 35.9747 35.1367 36.0597 35.0605C36.146 34.9826 36.2252 34.8967 36.2964 34.8039C36.3704 34.7115 36.4395 34.6242 36.4986 34.537L36.6614 34.306C36.6978 34.254 36.7391 34.2059 36.7847 34.1623L36.8438 34.1315C36.8682 34.1256 36.8935 34.1256 36.9178 34.1315C36.9721 34.1315 36.9967 34.1315 36.9967 34.1982C37.0011 34.2168 37.0011 34.2361 36.9967 34.2547L36.2027 35.9074C36.1916 35.932 36.1766 35.9545 36.1584 35.9741C36.1442 35.9897 36.1247 35.9989 36.1041 35.9997H31.0296C31.0237 36.0005 31.0178 35.9995 31.0125 35.9968C31.0073 35.994 31.0029 35.9897 31 35.9843Z" fill="#3A683D"/>
</svg>
