<svg width="161" height="19" viewBox="0 0 161 19" fill="none" xmlns="http://www.w3.org/2000/svg">
<path d="M9.24494 0.255127L11.8641 5.89504L18.0374 6.64322L13.4829 10.8771L14.679 16.9794L9.24494 13.9561L3.8109 16.9794L5.00697 10.8771L0.452479 6.64322L6.62573 5.89504L9.24494 0.255127Z" fill="#FFC633"/>
<path d="M33.0469 0.255127L35.6661 5.89504L41.8394 6.64322L37.2849 10.8771L38.481 16.9794L33.0469 13.9561L27.6129 16.9794L28.809 10.8771L24.2545 6.64322L30.4277 5.89504L33.0469 0.255127Z" fill="#FFC633"/>
<path d="M56.8487 0.255127L59.4679 5.89504L65.6412 6.64322L61.0867 10.8771L62.2827 16.9794L56.8487 13.9561L51.4147 16.9794L52.6107 10.8771L48.0562 6.64322L54.2295 5.89504L56.8487 0.255127Z" fill="#FFC633"/>
<path d="M80.6507 0.255127L83.2699 5.89504L89.4432 6.64322L84.8887 10.8771L86.0847 16.9794L80.6507 13.9561L75.2167 16.9794L76.4127 10.8771L71.8582 6.64322L78.0315 5.89504L80.6507 0.255127Z" fill="#FFC633"/>
<path d="M104.452 0.255127L107.072 5.89504L113.245 6.64322L108.69 10.8771L109.886 16.9794L104.452 13.9561L99.0184 16.9794L100.214 10.8771L95.66 6.64322L101.833 5.89504L104.452 0.255127Z" fill="#FFC633"/>
<path d="M130.758 15.168C128.742 15.168 127.454 13.908 127.454 11.934H128.462C128.462 13.376 129.344 14.244 130.772 14.244C132.284 14.244 133.264 13.236 133.264 11.752C133.264 10.352 132.354 9.246 130.772 9.246C129.848 9.246 129.008 9.666 128.462 10.268L127.664 10.016L128.868 4.976H133.712V5.9H129.596L128.84 9.05C129.4 8.602 130.128 8.35 130.912 8.35C132.998 8.35 134.286 9.848 134.286 11.724C134.286 13.74 132.858 15.168 130.758 15.168ZM136.324 15.154C135.848 15.154 135.442 14.762 135.442 14.3C135.442 13.824 135.848 13.418 136.324 13.418C136.8 13.418 137.206 13.824 137.206 14.3C137.206 14.762 136.8 15.154 136.324 15.154ZM138.282 9.988C138.282 6.88 139.808 4.78 142.3 4.78C144.778 4.78 146.304 6.88 146.304 9.988C146.304 13.11 144.806 15.182 142.3 15.182C139.78 15.182 138.282 13.11 138.282 9.988ZM139.276 9.988C139.276 12.592 140.382 14.272 142.3 14.272C144.218 14.272 145.324 12.592 145.324 9.988C145.324 7.37 144.218 5.704 142.3 5.704C140.382 5.704 139.276 7.37 139.276 9.988ZM148.021 15H147.069L150.975 4.976H151.955L148.021 15Z" fill="black"/>
<path d="M156.009 15.168C153.993 15.168 152.705 13.908 152.705 11.934H153.713C153.713 13.376 154.595 14.244 156.023 14.244C157.535 14.244 158.515 13.236 158.515 11.752C158.515 10.352 157.605 9.246 156.023 9.246C155.099 9.246 154.259 9.666 153.713 10.268L152.915 10.016L154.119 4.976H158.963V5.9H154.847L154.091 9.05C154.651 8.602 155.379 8.35 156.163 8.35C158.249 8.35 159.537 9.848 159.537 11.724C159.537 13.74 158.109 15.168 156.009 15.168Z" fill="black" fill-opacity="0.6"/>
</svg>
