<svg width="14" height="14" viewBox="0 0 14 14" fill="none" xmlns="http://www.w3.org/2000/svg">
<path d="M13.0488 12.875C12.917 10.3729 10.6682 9.33777 10.6682 9.33777C10.1309 9.08655 9.15682 8.59476 8.51815 8.26967C9.33642 7.37445 9.5781 5.91486 9.61573 5.70717C9.7865 4.76743 9.70055 3.60428 9.70055 3.60428C9.5444 1.34243 7.26077 1.3069 7.02163 1.30928C7.00843 1.30928 6.99985 1.30942 6.99985 1.30942C6.99985 1.30942 6.99255 1.30928 6.98173 1.30942C6.76491 1.30661 4.45614 1.32951 4.29915 3.60428C4.29915 3.60428 4.2132 4.76729 4.38397 5.70717C4.39507 5.7677 4.424 5.93634 4.47891 6.16439C4.90904 6.72905 5.5731 7.00597 6.11812 7.14148C6.18666 7.07491 6.28004 7.03349 6.38353 7.03349H7.37691C7.58714 7.03349 7.75734 7.20382 7.75734 7.41405C7.75734 7.62441 7.58714 7.79489 7.37691 7.79489H6.38353C6.22667 7.79489 6.09257 7.70025 6.03401 7.56528C5.62748 7.46641 5.15704 7.29425 4.73715 6.9981C4.90467 7.43299 5.1434 7.8995 5.48183 8.26981C4.84316 8.5949 3.86945 9.08652 3.33175 9.33777C3.33175 9.33777 1.08323 10.3729 0.951214 12.875C0.951214 12.875 0.912165 13.2911 1.70067 13.4486C1.70067 13.4486 4.1163 13.9999 7.00013 13.9999C9.88423 13.9999 12.2999 13.4486 12.2999 13.4486C13.0882 13.2911 13.0488 12.875 13.0488 12.875Z" fill="black"/>
<path d="M3.52625 6.51835H3.76624V3.69954C3.76681 3.69251 3.76848 3.68577 3.76848 3.67861V3.26238C3.76848 2.52036 3.99751 1.9189 4.44926 1.47461C5.38367 0.555228 6.97976 0.567742 7.00671 0.571516C7.02567 0.570121 8.60843 0.547359 9.54702 1.46603C10.0019 1.91119 10.2326 2.51544 10.2326 3.26238V3.70249C10.2326 3.70683 10.2337 3.71077 10.2337 3.71498V6.51832H10.4737C11.0643 6.51832 11.543 6.0396 11.543 5.44911V4.42145C11.543 3.94639 11.2329 3.54421 10.804 3.40503V3.26249C10.804 2.35618 10.5154 1.61445 9.94682 1.05779C8.83833 -0.0271221 7.06767 0.000969413 7.00575 0.000123006C6.93133 -0.000586145 5.15898 -0.0223411 4.05102 1.06456C3.48441 1.62065 3.19695 2.36013 3.19695 3.26238V3.40435C2.76752 3.5435 2.45703 3.94598 2.45703 4.42132V5.44897C2.45705 6.03962 2.93589 6.51835 3.52625 6.51835Z" fill="black"/>
</svg>
