<svg width="28" height="28" viewBox="0 0 28 28" fill="none" xmlns="http://www.w3.org/2000/svg">
<circle cx="14" cy="14" r="14" fill="#019E7F"/>
<g clip-path="url(#clip0_1378_12006)">
<path fill-rule="evenodd" clip-rule="evenodd" d="M17.1233 8.20669C16.1402 5.1811 11.8598 5.1811 10.8767 8.20669C10.5877 9.09625 9.75871 9.69853 8.82337 9.69853C5.64207 9.69853 4.31935 13.7694 6.89308 15.6394C7.64978 16.1891 7.96642 17.1636 7.67738 18.0532C6.69431 21.0788 10.1572 23.5948 12.731 21.7248C13.4877 21.1751 14.5123 21.1751 15.269 21.7248C17.8427 23.5948 21.3057 21.0788 20.3226 18.0532C20.0336 17.1636 20.3502 16.1891 21.1069 15.6394C23.6806 13.7694 22.3579 9.69853 19.1766 9.69853C18.2413 9.69853 17.4123 9.09625 17.1233 8.20669ZM11.9466 8.55434C12.593 6.56522 15.407 6.56522 16.0533 8.55434C16.493 9.90742 17.7539 10.8235 19.1766 10.8235C21.2681 10.8235 22.1377 13.4999 20.4456 14.7292C19.2946 15.5655 18.813 17.0478 19.2526 18.4008C19.899 20.39 17.6223 22.044 15.9303 20.8147C14.7793 19.9784 13.2207 19.9784 12.0697 20.8147C10.3776 22.044 8.10102 20.39 8.74732 18.4008C9.18697 17.0478 8.70534 15.5655 7.55434 14.7292C5.86229 13.4999 6.73189 10.8235 8.82337 10.8235C10.2461 10.8235 11.507 9.90742 11.9466 8.55434Z" fill="white"/>
</g>
<defs>
<clipPath id="clip0_1378_12006">
<rect width="18" height="18" fill="white" transform="translate(5 5)"/>
</clipPath>
</defs>
</svg>
