<svg width="110" height="53" viewBox="0 0 110 53" fill="none" xmlns="http://www.w3.org/2000/svg">
<g clip-path="url(#clip0_3801_3564)">
<path d="M43.8096 43.417C33.4324 51.8784 18.2725 50.1847 9.95127 39.6328C1.63007 29.0809 3.29563 13.6656 13.672 5.20428C16.9536 2.51912 20.8731 0.760756 25.0358 0.106323C19.4973 0.327377 14.1756 2.35388 9.85679 5.88649C-1.32531 15.004 -3.11977 31.6116 5.8467 42.9791C14.8124 54.3488 31.145 56.1734 42.3242 47.056C46.653 43.5361 49.754 38.6941 51.1691 33.2449C49.6378 37.2344 47.0993 40.743 43.8096 43.417Z" fill="#1F896B"/>
<path d="M79.0598 44.52C78.2741 44.5202 77.5206 44.8377 76.965 45.4026C76.4095 45.9676 76.0973 46.7337 76.0971 47.5326C76.0971 47.8857 76.1593 48.2253 76.2707 48.5396L74.0865 48.6773L76.3879 48.8226C76.5938 49.2605 76.8997 49.642 77.28 49.9353L73.3607 50.1848L78.7192 50.5236C79.1342 50.5728 79.5548 50.5321 79.9532 50.4043C80.3517 50.2765 80.7191 50.0645 81.0312 49.7821C81.3434 49.4997 81.5933 49.1533 81.7645 48.7658C81.9357 48.3782 82.0244 47.9582 82.0247 47.5334C82.0239 46.7342 81.7113 45.968 81.1553 45.403C80.5994 44.838 79.8457 44.5204 79.0598 44.52ZM100.369 44.52C99.5828 44.5202 98.8294 44.8377 98.2738 45.4026C97.7182 45.9676 97.406 46.7337 97.4058 47.5326C97.4058 47.8886 97.4703 48.2297 97.5816 48.5463L95.4949 48.6803L97.6915 48.8203C97.898 49.2646 98.2083 49.6507 98.5953 49.945L94.7691 50.187L99.9569 50.5162C100.092 50.5356 100.228 50.5475 100.369 50.5475L100.426 50.5452L100.47 50.5475V50.543C101.238 50.5169 101.966 50.1886 102.5 49.6274C103.034 49.0662 103.333 48.3159 103.333 47.5349C103.332 46.7356 103.02 45.9693 102.464 45.4042C101.908 44.839 101.155 44.521 100.369 44.52ZM25.6535 36.6545V18.5096H21.9539V25.2871H14.6318V18.5096H12.7692C11.746 18.5096 10.9323 19.4168 10.9323 20.4572V36.6545H14.6325V28.6236H21.9547V36.6545H25.6542H25.6535ZM30.8223 24.2466C30.8223 23.0997 30.27 22.5381 29.1421 22.5381H27.3315V36.6545H30.8223V24.2466ZM30.8223 20.245C30.8486 19.098 30.2964 18.5096 29.1421 18.5096H27.3315V21.2847H30.8223V20.245ZM36.8041 20.245C36.8041 19.3103 36.0424 18.5096 35.1246 18.5096H33.3133V36.6545H36.8041V20.245ZM44.4661 27.8491C40.9497 28.1954 38.5363 29.1025 38.4579 32.4927C38.4579 35.6133 40.7658 37.1893 44.0999 36.9226C47.8522 36.6567 50.1608 34.9222 50.1608 31.0263V26.2232C50.0817 23.6076 48.14 22.3281 44.3086 22.3281C41.1086 22.3281 39.298 23.6076 38.8769 26.2232H42.3669C42.55 25.5559 43.2327 25.2364 44.4654 25.2364C45.9097 25.2364 46.6429 25.6356 46.7213 26.4362C46.7235 27.2086 45.9625 27.6629 44.4654 27.8491H44.4661ZM46.7769 29.5576V30.8639C46.7769 32.8651 45.5962 34.0389 43.6546 34.0389C42.553 34.0389 41.9751 33.5041 41.8967 32.384C41.8967 31.3435 42.6057 30.6755 43.9951 30.4096C44.9471 30.2168 45.8786 29.9315 46.7769 29.5576ZM54.1745 18.5096H52.3647V36.6545H55.8555V20.245C55.8555 19.3103 55.0937 18.5096 54.1753 18.5096H54.1745Z" fill="#1F1F32"/>
<path d="M76.5752 22.0063V36.6545H80.014V18.5096H74.5815L71.602 30.3105L73.0874 36.0177L76.5752 22.0063ZM87.5163 27.8491C83.9992 28.1954 81.5865 29.1025 81.5082 32.4927C81.5082 35.6133 83.8161 37.1892 87.1501 36.9226C90.9024 36.6567 93.2103 34.9222 93.2103 31.0263V26.2232C93.1319 23.6076 91.1902 22.3281 87.3596 22.3281C84.1589 22.3281 82.3483 23.6076 81.9271 26.2232H85.4179C85.601 25.5559 86.2837 25.2364 87.5163 25.2364C88.9607 25.2364 89.6939 25.6356 89.7722 26.4362C89.7744 27.2086 89.0134 27.6629 87.5163 27.8491ZM89.8272 29.5576V30.8639C89.8272 32.8651 88.6465 34.0389 86.7048 34.0389C85.6032 34.0389 85.0253 33.5041 84.9462 32.384C84.9462 31.3435 85.656 30.6755 87.0454 30.4096C87.9973 30.2168 88.9289 29.9315 89.8272 29.5576ZM98.4333 29.3163C98.4333 27.2614 99.4045 26.221 101.346 26.221H102.526V22.5381H102.027C97.3815 22.5381 94.9952 24.8059 94.8883 29.3692V36.6545H98.4311V29.3155H98.4333V29.3163ZM108.273 25.0741C109.244 25.0741 110.005 24.3263 110.005 23.3127V22.5381H107.907V20.2978C107.907 19.3639 107.145 18.5104 106.226 18.5104H104.416V33.9324C104.389 35.5076 105.02 36.3328 106.331 36.4683C107.552 36.5963 108.782 36.605 110.005 36.4944V33.7998H108.93C108.246 33.7998 107.907 33.4803 107.907 32.8927V25.0741H108.273ZM62.1177 22.8189V36.6545H65.5528V25.2118L64.9588 22.8189H62.1169H62.1177Z" fill="#1F896B"/>
<path d="M106.569 39.1152H72.8557L71.0906 32.3304L67.4943 18.5096H61.3675C60.8606 18.5112 60.3748 18.7167 60.0164 19.0812C59.658 19.4456 59.4559 19.9395 59.4543 20.455V22.0041H65.5533L69.8147 39.1152L70.6863 42.609H110.005C110.005 41.6825 109.642 40.7941 108.998 40.139C108.354 39.4838 107.48 39.1156 106.569 39.1152Z" fill="#1F1F32"/>
</g>
<defs>
<clipPath id="clip0_3801_3564">
<rect width="110" height="53" fill="white"/>
</clipPath>
</defs>
</svg>
