<svg width="17" height="18" viewBox="0 0 17 18" fill="none" xmlns="http://www.w3.org/2000/svg">
<path d="M12.9874 12.6966L16.2033 15.9055C16.3698 16.0721 16.5433 16.2336 16.7019 16.4101C16.7909 16.4926 16.8622 16.5924 16.9113 16.7034C16.9605 16.8144 16.9864 16.9342 16.9876 17.0556C16.9887 17.177 16.9651 17.2973 16.9182 17.4092C16.8712 17.5211 16.8019 17.6223 16.7144 17.7065C16.627 17.7906 16.5233 17.856 16.4096 17.8987C16.296 17.9414 16.1749 17.9605 16.0537 17.9547C15.9324 17.9489 15.8136 17.9184 15.7046 17.8651C15.5955 17.8118 15.4985 17.7368 15.4195 17.6447C14.3356 16.5807 13.2466 15.5196 12.2016 14.4177C12.1317 14.3136 12.0413 14.2248 11.9359 14.1568C11.8305 14.0888 11.7124 14.043 11.5887 14.0223C11.465 14.0016 11.3383 14.0064 11.2165 14.0363C11.0947 14.0662 10.9803 14.1207 10.8803 14.1964C9.86768 14.7094 8.75163 14.9854 7.6166 15.0036C6.48157 15.0217 5.35725 14.7816 4.32868 14.3014C3.3001 13.8211 2.3942 13.1133 1.67945 12.2314C0.964692 11.3495 0.459806 10.3166 0.202965 9.21083C-0.0538758 8.10509 -0.0559456 6.95543 0.196909 5.84877C0.449764 4.74211 0.950924 3.70745 1.6625 2.82298C2.37407 1.93851 3.27743 1.22741 4.30427 0.743434C5.33111 0.259463 6.45452 0.0152895 7.58961 0.029386C8.96299 0.0493957 10.3046 0.445635 11.4685 1.17499C12.6324 1.90434 13.574 2.93885 14.1908 4.16605C14.8077 5.39325 15.0763 6.76612 14.9673 8.13531C14.8583 9.50451 14.376 10.8176 13.5727 11.9318C13.4012 12.1681 13.2177 12.3905 12.9874 12.6966ZM7.46597 13.2162C8.59231 13.2225 9.69519 12.8944 10.635 12.2735C11.5747 11.6526 12.3091 10.7668 12.7451 9.72823C13.1811 8.68968 13.2991 7.54509 13.0842 6.43942C12.8693 5.33375 12.3311 4.31672 11.5378 3.51713C10.7445 2.71753 9.73178 2.17132 8.62785 1.94768C7.52391 1.72403 6.37841 1.833 5.33645 2.26079C4.29449 2.68858 3.4029 3.41596 2.77459 4.3508C2.14628 5.28564 1.80954 6.3859 1.80696 7.51226C1.80103 8.25918 1.94301 8.99988 2.22475 9.69165C2.50649 10.3834 2.92242 11.0126 3.4485 11.5428C3.97458 12.0731 4.60042 12.4939 5.28995 12.7811C5.97948 13.0683 6.71902 13.2162 7.46597 13.2162Z" fill="black"/>
</svg>
