<svg width="20" height="15" viewBox="0 0 20 15" fill="none" xmlns="http://www.w3.org/2000/svg">
<g clip-path="url(#clip0_3804_770)">
<path d="M0 10H20V15H0V10Z" fill="#1EB53A"/>
<path d="M0 0H20V5H0V0Z" fill="#0099B5"/>
<path d="M0 4.80005H20V10.2H0V4.80005Z" fill="#CE1126"/>
<path d="M0 5.09998H20V9.89998H0V5.09998Z" fill="white"/>
<path d="M4.19996 4.19998C5.19408 4.19998 5.99996 3.39409 5.99996 2.39998C5.99996 1.40586 5.19408 0.599976 4.19996 0.599976C3.20585 0.599976 2.39996 1.40586 2.39996 2.39998C2.39996 3.39409 3.20585 4.19998 4.19996 4.19998Z" fill="white"/>
<path d="M4.80001 4.19998C5.79412 4.19998 6.60001 3.39409 6.60001 2.39998C6.60001 1.40586 5.79412 0.599976 4.80001 0.599976C3.80589 0.599976 3 1.40586 3 2.39998C3 3.39409 3.80589 4.19998 4.80001 4.19998Z" fill="#0099B5"/>
<path d="M8.15935 3.48059L8.04535 3.8226L8.21936 3.8826" fill="white"/>
<path d="M8.15935 3.48059L8.04535 3.8226L8.21936 3.8826" fill="white"/>
<path d="M8.15935 3.48059L8.04535 3.8226L8.21936 3.8826" fill="white"/>
<path d="M8.15935 3.48059L8.04535 3.8226L8.21936 3.8826" fill="white"/>
<path d="M8.15935 3.48059L8.04535 3.8226L8.21936 3.8826" fill="white"/>
<path d="M8.15935 3.48059L8.04535 3.8226L8.21936 3.8826" fill="white"/>
<path d="M8.15935 3.48059L8.04535 3.8226L8.21936 3.8826" fill="white"/>
<path d="M8.15935 3.48059L8.04535 3.8226L8.21936 3.8826" fill="white"/>
<path d="M8.15935 3.48059L8.04535 3.8226L8.21936 3.8826" fill="white"/>
<path d="M8.15935 3.48059L8.04535 3.8226L8.21936 3.8826" fill="white"/>
<path d="M8.15935 3.48059L8.04535 3.8226L8.21936 3.8826" fill="white"/>
<path d="M8.15935 3.48059L8.04535 3.8226L8.21936 3.8826" fill="white"/>
<path d="M8.15935 3.48059L8.04535 3.8226L8.21936 3.8826" fill="white"/>
<path d="M8.15935 3.48059L8.04535 3.8226L8.21936 3.8826" fill="white"/>
<path d="M8.15935 3.48059L8.04535 3.8226L8.21936 3.8826" fill="white"/>
<path d="M8.15935 3.48059L8.04535 3.8226L8.21936 3.8826" fill="white"/>
<path d="M8.15935 3.48059L8.04535 3.8226L8.21936 3.8826" fill="white"/>
<path d="M8.15935 3.48059L8.04535 3.8226L8.21936 3.8826" fill="white"/>
<path d="M8.15935 3.48059L8.04535 3.8226L8.21936 3.8826" fill="white"/>
<path d="M8.15935 3.48059L8.04535 3.8226L8.21936 3.8826" fill="white"/>
<path d="M8.15935 3.48059L8.04535 3.8226L8.21936 3.8826" fill="white"/>
<path d="M8.15935 3.48059L8.04535 3.8226L8.21936 3.8826" fill="white"/>
<path d="M8.15935 3.48059L8.04535 3.8226L8.21936 3.8826" fill="white"/>
<path d="M8.15935 3.48059L8.04535 3.8226L8.21936 3.8826" fill="white"/>
<path d="M8.15935 3.48059L8.04535 3.8226L8.21936 3.8826" fill="white"/>
<path d="M8.15935 3.48059L8.04535 3.8226L8.21936 3.8826" fill="white"/>
<path d="M8.15935 3.48059L8.04535 3.8226L8.21936 3.8826" fill="white"/>
<path d="M8.15935 3.48059L8.04535 3.8226L8.21936 3.8826" fill="white"/>
<path d="M8.15935 3.48059L8.04535 3.8226L8.21936 3.8826" fill="white"/>
<path d="M8.15935 3.48059L8.04535 3.8226L8.21936 3.8826" fill="white"/>
<path d="M8.15935 3.48059L8.04535 3.8226L8.21936 3.8826" fill="white"/>
<path d="M8.15935 3.48059L8.04535 3.8226L8.21936 3.8826" fill="white"/>
<path d="M8.15935 3.48059L8.04535 3.8226L8.21936 3.8826" fill="white"/>
<path d="M8.15935 3.48059L8.04535 3.8226L8.21936 3.8826" fill="white"/>
<path d="M8.15935 3.48059L8.04535 3.8226L8.21936 3.8826" fill="white"/>
<path d="M8.15935 3.48059L8.04535 3.8226L8.21936 3.8826" fill="white"/>
<path d="M8.15935 3.48059L8.04535 3.8226L8.21936 3.8826" fill="white"/>
<path d="M8.15935 3.48059L8.04535 3.8226L8.21936 3.8826" fill="white"/>
<path d="M8.15935 3.48059L8.04535 3.8226L8.21936 3.8826" fill="white"/>
<path d="M8.15935 3.48059L8.04535 3.8226L8.21936 3.8826" fill="white"/>
<path d="M8.15935 3.48059L8.04535 3.8226L8.21936 3.8826" fill="white"/>
<path d="M8.15935 3.48059L8.04535 3.8226L8.21936 3.8826" fill="white"/>
<path d="M8.15935 3.48059L8.04535 3.8226L8.21936 3.8826" fill="white"/>
<path d="M8.15935 3.48059L8.04535 3.8226L8.21936 3.8826" fill="white"/>
<path d="M8.15935 3.48059L8.04535 3.8226L8.21936 3.8826" fill="white"/>
<path d="M8.15935 3.48059L8.04535 3.8226L8.21936 3.8826" fill="white"/>
<path d="M8.15935 3.48059L8.04535 3.8226L8.21936 3.8826" fill="white"/>
<path d="M8.15935 3.48059L8.04535 3.8226L8.21936 3.8826" fill="white"/>
<path d="M8.15935 3.48059L8.04535 3.8226L8.21936 3.8826" fill="white"/>
<path d="M8.15935 3.48059L8.04535 3.8226L8.21936 3.8826" fill="white"/>
<path d="M8.15935 3.48059L8.04535 3.8226L8.21936 3.8826" fill="white"/>
<path d="M8.15935 3.48059L8.04535 3.8226L8.21936 3.8826" fill="white"/>
<path d="M8.15935 3.48059L8.04535 3.8226L8.21936 3.8826" fill="white"/>
<path d="M8.15935 3.48059L8.04535 3.8226L8.21936 3.8826" fill="white"/>
<path d="M8.15935 3.48059L8.04535 3.8226L8.21936 3.8826" fill="white"/>
<path d="M8.15935 3.48059L8.04535 3.8226L8.21936 3.8826" fill="white"/>
<path d="M8.15935 3.48059L8.04535 3.8226L8.21936 3.8826" fill="white"/>
<path d="M8.15935 3.48059L8.04535 3.8226L8.21936 3.8826" fill="white"/>
<path d="M8.15935 3.48059L8.04535 3.8226L8.21936 3.8826" fill="white"/>
<path d="M8.15935 3.48059L8.04535 3.8226L8.21936 3.8826" fill="white"/>
</g>
<defs>
<clipPath id="clip0_3804_770">
<rect width="20" height="15" fill="white"/>
</clipPath>
</defs>
</svg>
