<svg width="21" height="24" viewBox="0 0 21 24" fill="none" xmlns="http://www.w3.org/2000/svg">
<path d="M15.0265 7.70332C16.5702 8.81041 18.4607 9.46185 20.5025 9.46185V6.35778C19.3628 6.11414 18.3538 5.5164 17.5951 4.68499C16.2966 3.87179 15.361 2.5302 15.0867 0.959961H12.2241V16.7106C12.2176 18.5468 10.7327 20.0336 8.90162 20.0336C7.82257 20.0336 6.86394 19.5174 6.25682 18.7178C5.17269 18.1687 4.42923 17.0413 4.42923 15.7394C4.42923 13.8981 5.91655 12.4052 7.75161 12.4052C8.1032 12.4052 8.44208 12.4602 8.75995 12.5614V9.42338C4.81921 9.50509 1.6499 12.7365 1.6499 16.7107C1.6499 18.6946 2.43913 20.4931 3.72006 21.8071C4.87565 22.5858 6.26675 23.04 7.76342 23.04C11.7747 23.04 15.0265 19.7765 15.0265 15.7509V7.70332H15.0265Z" fill="#F5F5F5"/>
<path d="M20.5025 6.3578V5.51848C19.4748 5.52005 18.4672 5.23119 17.5952 4.68493C18.3671 5.53306 19.3835 6.11787 20.5025 6.3578ZM15.0867 0.959983C15.0605 0.809911 15.0404 0.658851 15.0265 0.507214V0H11.074V15.7508C11.0677 17.5868 9.58292 19.0736 7.75164 19.0736C7.214 19.0736 6.70638 18.9455 6.25685 18.7179C6.86397 19.5174 7.82259 20.0336 8.90164 20.0336C10.7326 20.0336 12.2177 18.5469 12.2241 16.7107V0.959983H15.0867ZM8.76014 9.42341V8.52989C8.42988 8.48459 8.09691 8.46186 7.76353 8.46202C3.75192 8.46194 0.5 11.7254 0.5 15.7508C0.5 18.2745 1.77806 20.4987 3.72017 21.807C2.43924 20.493 1.65001 18.6944 1.65001 16.7106C1.65001 12.7365 4.81924 9.50511 8.76014 9.42341Z" fill="white"/>
</svg>
