<svg width="22" height="20" viewBox="0 0 22 20" fill="none" xmlns="http://www.w3.org/2000/svg">
<path d="M18.5 4.75H3.5C2.25736 4.75 1.25 5.75736 1.25 7V16C1.25 17.2426 2.25736 18.25 3.5 18.25H18.5C19.7426 18.25 20.75 17.2426 20.75 16V7C20.75 5.75736 19.7426 4.75 18.5 4.75Z" stroke="#735CD8" stroke-width="1.6" stroke-linejoin="round"/>
<path d="M18.2825 4.74998V3.34373C18.2824 2.99883 18.2062 2.6582 18.0592 2.34615C17.9123 2.0341 17.6984 1.75832 17.4326 1.53849C17.1668 1.31866 16.8558 1.16019 16.5217 1.0744C16.1877 0.988606 15.8388 0.9776 15.5 1.04217L3.155 3.1492C2.6189 3.25136 2.13526 3.53741 1.78749 3.958C1.43972 4.37859 1.24963 4.90736 1.25 5.4531V7.74998" stroke="#735CD8" stroke-width="1.6" stroke-linejoin="round"/>
<path d="M16.25 13C15.9533 13 15.6633 12.912 15.4166 12.7472C15.17 12.5824 14.9777 12.3481 14.8642 12.074C14.7506 11.7999 14.7209 11.4983 14.7788 11.2074C14.8367 10.9164 14.9796 10.6491 15.1893 10.4393C15.3991 10.2296 15.6664 10.0867 15.9574 10.0288C16.2483 9.97094 16.5499 10.0006 16.824 10.1142C17.0981 10.2277 17.3324 10.42 17.4972 10.6666C17.662 10.9133 17.75 11.2033 17.75 11.5C17.75 11.8978 17.592 12.2794 17.3107 12.5607C17.0294 12.842 16.6478 13 16.25 13Z" fill="#735CD8"/>
</svg>
