<svg width="282" height="161" viewBox="0 0 282 161" fill="none" xmlns="http://www.w3.org/2000/svg">
<path opacity="0.4" d="M187.547 96.2555C189.983 89.9919 193.035 83.9856 196.658 78.3251C203.927 66.9756 213.309 57.1283 224.293 49.3183C229.925 45.2786 235.976 41.8587 242.341 39.1179C249.237 36.2011 256.967 34.3132 264.407 36.0735C270.449 37.5022 275.976 41.2141 278.437 47.069C281.133 53.5065 281.358 61.1812 279.509 67.861C277.875 73.5461 274.671 78.6553 270.266 82.6025C265.889 86.5261 260.756 89.5114 255.181 91.3743C249.543 93.3275 243.599 94.2465 237.635 94.087C236.211 94.0445 234.786 93.9382 233.383 93.7639C232.533 93.6576 232.533 94.9927 233.383 95.099C239.467 95.8117 245.629 95.3893 251.559 93.8531C257.477 92.3883 263.055 89.7891 267.983 86.1996C272.728 82.6833 276.741 78.121 279.177 72.7082C282.213 65.9562 282.774 58.1496 281.086 50.9596C280.423 48.1448 279.386 45.3215 277.685 42.9617C275.71 40.2852 273.11 38.1322 270.113 36.6901C263.378 33.3863 255.713 33.5139 248.608 35.491C244.71 36.6269 240.926 38.1259 237.307 39.9683C234.224 41.4987 231.222 43.1861 228.311 45.0239C222.459 48.7126 216.983 52.968 211.964 57.7287C206.966 62.4725 202.438 67.6883 198.444 73.3035C194.447 78.913 191.021 84.9083 188.218 91.1999C187.53 92.7505 186.878 94.3095 186.263 95.8771C185.952 96.6807 187.241 97.0251 187.538 96.2342L187.547 96.2555Z" fill="#64C962"/>
<path opacity="0.4" d="M192.215 96.4722C204.626 75.9438 221.862 57.0439 244.535 49.2076C248.876 47.7067 253.464 46.6267 258.038 47.0817C262.613 47.5366 267.179 49.7519 269.616 53.6466C272.001 57.4734 272.052 62.3504 270.938 66.7086C268.974 74.4004 263.71 80.9484 257.363 85.719C251.015 90.4897 243.617 93.6617 236.177 96.4084" fill="#64C962"/>
<path opacity="0.4" d="M192.789 96.8081C197.972 88.2447 203.881 80.098 210.756 72.8145C217.499 65.6669 225.182 59.3528 233.838 54.6587C238.31 52.1895 243.049 50.2367 247.962 48.8378C253.183 47.3964 258.961 46.9329 263.931 49.4713C266.117 50.5422 267.952 52.215 269.22 54.293C270.49 56.5954 271.095 59.2054 270.967 61.8317C270.844 66.8915 268.778 71.8152 265.951 75.9481C259.777 84.975 249.854 90.3367 239.922 94.2697C238.621 94.7885 237.312 95.2817 236.002 95.7664C235.203 96.0598 235.547 97.3524 236.355 97.042C246.895 93.1472 257.613 88.283 264.96 79.4432C268.255 75.4719 270.836 70.7735 271.856 65.684C272.893 60.5008 272.196 54.7735 268.272 50.9255C264.445 47.1753 258.872 45.9337 253.668 46.4014C248.085 46.8989 242.648 48.9526 237.588 51.2784C228.362 55.5303 220.089 61.6574 212.857 68.7539C205.506 75.9821 199.179 84.1799 193.661 92.8581C192.975 93.9381 192.3 95.0252 191.637 96.1193C191.19 96.8592 192.347 97.531 192.789 96.7954V96.8081Z" fill="#64C962"/>
<path opacity="0.4" d="M178.232 96.8763C178.233 97.0033 178.203 97.1287 178.146 97.2422C178.089 97.3557 178.006 97.4539 177.903 97.5287C177.8 97.6035 177.681 97.6528 177.556 97.6724C177.43 97.692 177.302 97.6815 177.181 97.6416C172.568 83.776 173.261 68.8092 172.564 54.2166C171.867 39.6239 169.341 24.2021 159.758 13.1811C155.69 8.50394 150.124 4.67719 143.925 4.38806C137.727 4.09893 131.124 8.15103 130.099 14.2696C129.7 16.6124 130.099 19.0062 130.278 21.3788C130.589 25.6757 130.14 29.9938 128.951 34.1346C128.56 35.4825 128.058 36.8729 127.021 37.8253C124.262 40.3765 119.73 38.4716 116.145 39.5771C113.697 40.3297 111.894 42.4557 110.759 44.7517C108.582 49.127 108.395 54.3186 109.598 59.0553C110.801 63.7919 113.305 68.1119 116.29 71.9812C125.102 83.3094 137.829 90.9347 151.974 93.3599" fill="#64C962"/>
<path opacity="0.4" d="M177.568 96.8761C177.568 97.0037 177.462 97.0292 177.356 96.9994L177.824 97.4629C174.992 88.908 174.163 79.8938 173.793 70.9393C173.436 62.3886 173.495 53.8124 172.543 45.3001C171.693 37.6466 170.064 29.9931 166.808 22.9476C163.644 16.1445 158.73 9.51574 151.927 5.97812C148.666 4.27735 144.933 3.33341 141.256 3.85215C137.93 4.29014 134.845 5.82712 132.493 8.21889C131.36 9.39174 130.479 10.7837 129.904 12.3093C129.185 14.2396 129.151 16.3103 129.304 18.3385C129.55 20.6164 129.674 22.9058 129.674 25.1969C129.602 27.4875 129.309 29.7659 128.798 32C128.373 33.8453 127.948 36.1499 126.426 37.4425C125.15 38.5395 123.327 38.582 121.724 38.5607C119.972 38.5607 118.195 38.3949 116.469 38.7861C114.709 39.2341 113.138 40.2339 111.988 41.6391C109.39 44.675 108.272 48.8334 108.187 52.7665C108.093 56.9674 109.207 61.0833 111.018 64.8505C112.827 68.492 115.115 71.8753 117.821 74.9106C120.317 77.777 123.093 80.3878 126.107 82.7044C132.14 87.3634 139.027 90.7968 146.379 92.8112C148.156 93.2988 149.957 93.6843 151.783 93.9678C152.633 94.1123 152.981 92.824 152.135 92.6922C144.679 91.4223 137.551 88.6757 131.171 84.6135C124.665 80.5288 119.087 75.1279 114.794 68.758C110.295 61.9549 107.485 53.0046 111.235 45.232C111.967 43.5842 113.111 42.1522 114.556 41.0736C116.048 40.0447 117.736 39.8321 119.504 39.8406C121.273 39.8491 123.029 40.0319 124.751 39.6577C125.614 39.4776 126.423 39.1013 127.117 38.5578C127.811 38.0144 128.37 37.3185 128.752 36.5241C129.67 34.6617 130.104 32.5017 130.452 30.4735C130.842 28.2743 131.033 26.0443 131.022 23.8108C130.996 19.7629 129.695 15.3877 131.689 11.6034C133.199 8.74188 136.005 6.70095 139.053 5.723C142.454 4.63026 146.056 4.97892 149.368 6.28001C156.472 9.06503 161.663 15.6343 164.996 22.2801C168.432 29.1214 170.166 36.7367 171.085 44.2881C172.105 52.6772 172.092 61.1343 172.403 69.5659C172.73 78.4354 173.402 87.4028 175.944 95.9534C176.093 96.4594 176.25 96.9611 176.412 97.4629C176.574 97.9646 176.727 98.3133 177.301 98.3685C177.504 98.383 177.707 98.3559 177.899 98.2887C178.091 98.2216 178.268 98.1159 178.417 97.9781C178.567 97.8403 178.687 97.6734 178.77 97.4875C178.853 97.3017 178.897 97.1008 178.899 96.8974C178.92 96.047 177.59 96.047 177.568 96.8974V96.8761Z" fill="#64C962"/>
<path opacity="0.4" d="M124.649 31.7916C114.985 31.0135 106.235 38.5947 104.003 47.7066C102.766 52.7494 103.263 58.1324 105.036 62.9838C106.851 67.8108 109.796 72.1324 113.624 75.5866C117.876 79.5026 122.978 82.3897 128.369 84.4689C129.173 84.775 129.521 83.4867 128.726 83.1933C119.704 79.7237 111.214 73.5712 107.115 64.5741C105.004 60.0588 104.232 55.0327 104.892 50.092C105.547 45.5052 107.751 41.2804 111.137 38.1185C114.772 34.7425 119.641 32.7228 124.649 33.1267C125.499 33.1947 125.499 31.8511 124.649 31.7916Z" fill="#64C962"/>
<path opacity="0.4" d="M149.189 87.1648C141.243 85.1239 128.012 89.5247 119.815 89.7798C111.618 90.0349 103.178 92.7306 97.5577 98.7089C95.0407 101.383 93.1232 105.452 94.9514 108.641C95.6766 109.789 96.6875 110.728 97.885 111.367C104.173 115.028 112.115 113.531 119.224 115.087C122.2 115.738 125.384 117.307 126.184 120.236C127.191 123.931 123.884 127.864 125.1 131.496C125.793 133.566 127.867 134.948 130.01 135.344C132.153 135.739 134.368 135.297 136.464 134.685C141.332 133.264 145.992 130.828 149.495 127.159C152.999 123.489 155.269 118.502 155.099 113.429C154.975 109.577 168.236 89.4184 166.578 85.936" fill="#64C962"/>
<path opacity="0.4" d="M149.367 86.531C146.413 85.787 143.292 85.8847 140.282 86.1781C136.821 86.5098 133.398 87.1391 129.98 87.7471C126.891 88.3729 123.768 88.8187 120.627 89.0822C118.926 89.1885 117.204 89.2523 115.495 89.5074C113.73 89.7352 111.984 90.089 110.27 90.5661C106.803 91.513 103.531 93.0663 100.606 95.154C97.7701 97.2289 95.0788 99.8906 93.9819 103.313C93.4118 104.913 93.4253 106.663 94.0202 108.254C94.7089 109.921 96.095 111.112 97.6255 111.992C100.878 113.867 104.645 114.424 108.335 114.7C112.026 114.977 115.844 114.938 119.479 115.84C122.412 116.567 125.716 118.34 125.712 121.792C125.712 125.139 123.326 128.315 124.457 131.699C125.639 135.212 129.674 136.487 133.075 136.092C135.07 135.827 137.027 135.328 138.904 134.604C140.667 133.968 142.374 133.186 144.006 132.265C147.239 130.463 150.031 127.967 152.182 124.956C154.332 121.928 155.582 118.353 155.787 114.645C155.809 114.13 155.762 113.612 155.809 113.101C155.809 113.306 155.834 112.974 155.851 112.897C155.885 112.753 155.919 112.608 155.962 112.472C156.164 111.797 156.408 111.135 156.693 110.491C158.491 106.307 160.779 102.327 162.854 98.2792C163.908 96.217 164.95 94.142 165.859 92.0161C166.518 90.4768 167.216 88.8611 167.394 87.1816C167.467 86.6508 167.395 86.1102 167.186 85.6169C166.829 84.8345 165.681 85.5106 166.034 86.2887C165.94 86.0803 166.034 86.3525 166.064 86.4205C166.064 86.5353 166.093 86.4885 166.064 86.4205C166.064 86.4843 166.064 86.5523 166.064 86.6161C166.064 86.6799 166.064 86.8542 166.064 86.9732C166.064 87.0923 166.064 87.0966 166.064 87.1561C166.069 87.1984 166.069 87.2413 166.064 87.2836C165.938 87.9891 165.75 88.682 165.502 89.3543C164.824 91.2136 164.034 93.0298 163.134 94.7926C161.081 98.9892 158.798 103.063 156.757 107.259C155.966 108.763 155.296 110.327 154.754 111.936C154.585 112.445 154.496 112.978 154.491 113.514C154.52 115.294 154.275 117.068 153.764 118.774C151.638 125.823 145.537 130.717 138.836 133.23C135.52 134.467 131.273 135.845 127.973 133.868C127.309 133.501 126.743 132.979 126.324 132.346C125.905 131.713 125.645 130.988 125.567 130.233C125.444 128.6 125.992 127.01 126.443 125.462C126.894 123.914 127.293 122.256 127 120.61C126.719 119.135 125.92 117.81 124.746 116.873C122.157 114.726 118.675 114.173 115.431 113.85C111.779 113.488 108.084 113.548 104.462 112.919C102.707 112.647 100.998 112.137 99.3814 111.401C97.8211 110.665 96.2268 109.674 95.4105 108.097C93.8501 105.065 95.9589 101.387 98.0294 99.1678C100.43 96.6631 103.31 94.6676 106.499 93.3001C109.689 91.9229 113.069 91.037 116.524 90.6724C118.11 90.4939 119.708 90.4768 121.298 90.3493C122.786 90.2302 124.275 90.0261 125.746 89.7965C132.123 88.8016 138.577 87.1008 145.086 87.2921C146.409 87.3157 147.725 87.4854 149.01 87.7981C149.861 88.0065 150.201 86.7181 149.367 86.5225V86.531Z" fill="#64C962"/>
<path opacity="0.4" d="M164.197 90.6129C166.527 96.4635 178.16 135.024 181.357 140.454C183.402 143.941 185.659 147.368 188.669 150.068C191.981 153.044 196.067 155.009 200.149 156.752C205.952 159.222 212.831 161.272 218.337 158.193C223.086 155.536 225.28 149.66 225.072 144.221C224.863 138.783 217.487 94.142 215.348 89.1375" fill="#64C962"/>
<path opacity="0.4" d="M163.555 90.7916C164.933 94.2612 165.991 97.8753 167.139 101.421C168.98 107.106 170.804 112.8 172.666 118.48C174.41 123.799 176.161 129.11 178.091 134.366C178.729 136.1 179.367 137.839 180.145 139.523C180.505 140.289 180.91 141.033 181.357 141.751C182.552 143.787 183.893 145.734 185.37 147.576C188.444 151.314 192.415 153.92 196.76 155.97C200.914 157.921 205.293 159.762 209.889 160.285C214.141 160.77 218.516 159.728 221.526 156.544C224.247 153.665 225.569 149.66 225.743 145.752C225.775 144.266 225.682 142.779 225.463 141.309C225.225 139.357 224.948 137.414 224.663 135.475C223.86 130.003 222.963 124.539 222.057 119.084C221.088 113.335 220.076 107.604 218.975 101.864C218.222 97.9604 217.525 93.9933 216.424 90.1708C216.291 89.7058 216.132 89.2486 215.948 88.8017C215.858 88.649 215.712 88.5378 215.54 88.4924C215.369 88.447 215.187 88.4711 215.034 88.5593C214.885 88.6527 214.777 88.7993 214.733 88.9692C214.689 89.1391 214.711 89.3195 214.795 89.4735C214.689 89.2269 214.795 89.5118 214.829 89.5798C214.863 89.6478 214.906 89.7924 214.944 89.8987C215.025 90.1496 215.102 90.4047 215.174 90.6556C215.369 91.3359 215.544 92.0247 215.705 92.7135C216.173 94.6481 216.581 96.5998 216.981 98.5514C218.073 103.939 219.047 109.351 219.987 114.764C220.965 120.411 221.894 126.066 222.776 131.729C223.367 135.556 223.97 139.268 224.345 143.073C224.965 149.388 222.257 156.735 215.629 158.602C211.335 159.813 206.726 158.572 202.678 157.045C198.359 155.417 193.92 153.44 190.281 150.553C186.743 147.746 184.095 143.932 181.888 140.029C181.236 138.811 180.678 137.545 180.221 136.241C178.368 131.47 176.761 126.601 175.149 121.746C173.249 116.014 171.404 110.266 169.55 104.521C168.198 100.329 166.88 96.1235 165.417 91.9736C165.235 91.4592 165.052 90.9447 164.848 90.4344C164.537 89.6478 163.245 89.988 163.572 90.7916H163.555Z" fill="#64C962"/>
<path opacity="0.4" d="M208.677 75.7269C211.543 70.429 214.434 65.0588 215.85 59.2081C217.266 53.3574 217.066 46.8775 213.988 41.6901C213.425 40.6202 212.59 39.7169 211.569 39.0709C210.518 38.4884 209.111 38.4076 208.167 39.1474C207.393 39.7512 207.062 40.7504 206.773 41.6986L204.592 48.7228C204.48 49.2118 204.253 49.6667 203.928 50.0494C203.112 50.8658 201.671 50.5129 200.795 49.7603C199.919 49.0077 199.349 47.9489 198.474 47.2091C196.182 45.2532 192.39 46.1036 190.396 48.3741C188.402 50.6447 193.627 88.9887 193.737 92.0033" fill="#64C962"/>
<path opacity="0.4" d="M209.256 76.0627C212.155 70.684 215.131 65.2075 216.534 59.2123C217.81 53.8165 217.75 47.9191 215.352 42.8338C214.281 40.5632 212.474 37.757 209.604 37.9526C208.984 37.9953 208.388 38.2053 207.878 38.5602C207.368 38.9151 206.964 39.4016 206.709 39.968C206.037 41.3286 205.701 42.8891 205.251 44.3305L204.566 46.5372C204.311 47.3578 204.111 48.238 203.784 49.0246C203.291 50.2407 201.943 49.909 201.135 49.1734C200.136 48.2635 199.507 47.0475 198.35 46.2821C197.379 45.6727 196.243 45.3759 195.098 45.4317C193.968 45.4855 192.865 45.7983 191.875 46.3459C191.033 46.7491 190.302 47.3537 189.749 48.1062C189.488 48.6594 189.35 49.263 189.345 49.875C189.214 52.0911 189.247 54.3138 189.443 56.525C189.847 63.2729 190.595 69.9994 191.356 76.7132C191.905 81.6115 192.594 86.4927 193.027 91.4164C193.027 91.6035 193.057 91.7906 193.065 91.982C193.099 92.8323 194.434 92.8323 194.4 91.982C194.345 90.5873 194.128 89.1884 193.975 87.8023C193.665 85.0896 193.342 82.3768 193.031 79.6641C192.262 73.0098 191.514 66.3513 190.999 59.68C190.799 57.1288 190.617 54.5394 190.612 51.9627C190.6 51.1377 190.638 50.3126 190.727 49.4923C190.702 49.7049 190.757 49.318 190.774 49.2287C190.791 49.1394 190.838 48.9948 190.867 48.88C190.867 48.9056 190.906 48.7015 190.867 48.88C190.878 48.8456 190.895 48.8137 190.918 48.7865C191.059 48.7227 190.693 49.0033 190.969 48.727C191.178 48.5229 191.373 48.3018 191.599 48.1317C193.193 46.8264 195.706 46.2353 197.551 47.3578C198.656 48.0297 199.252 49.2542 200.183 50.1131C201.033 50.8785 202.236 51.3887 203.384 51.0953C204.77 50.7254 205.085 49.2925 205.472 48.0934C205.948 46.5542 206.425 45.015 206.904 43.4758C207.117 42.787 207.33 42.0854 207.555 41.4009C207.713 40.7693 208.041 40.193 208.503 39.7341C209.468 38.922 210.901 39.3089 211.79 40.036C212.823 40.8864 213.49 42.111 214.077 43.2802C214.662 44.4929 215.113 45.7662 215.42 47.0772C216.029 49.7335 216.181 52.474 215.871 55.1814C215.272 60.9853 212.818 66.415 210.157 71.5344C209.481 72.8312 208.788 74.1153 208.095 75.3994C207.67 76.1562 208.839 76.828 209.247 76.0712L209.256 76.0627Z" fill="#64C962"/>
<path d="M89.6493 46.461C104.815 58.5152 130.835 39.5133 130.835 39.5133L136.179 34.9042C142.654 32.0257 144.793 29.7636 144.793 29.7636L140.583 31.7025L145.605 27.7312C145.736 27.6249 145.15 27.7057 144.997 27.7822L140.303 30.2356L145.133 25.9369C145.154 25.9166 145.168 25.8891 145.171 25.8596C145.174 25.83 145.166 25.8003 145.149 25.776C145.132 25.7517 145.107 25.7344 145.078 25.7272C145.049 25.72 145.019 25.7235 144.992 25.737L139.227 28.9132C139.227 28.9132 143.772 24.7081 143.054 24.8229C142.335 24.9377 136.349 29.1173 136.349 29.1173C136.349 29.1173 138.819 25.1035 138.071 25.3203C137.586 25.4607 135.694 27.8715 134.423 29.5723C133.607 30.6565 133.836 31.0222 132.65 31.6983L124.045 36.8006C116.817 41.2311 104.011 44.6029 94.3771 36.6433C94.3771 36.6433 90.7037 34.7086 87.5405 38.5991C84.3773 42.4897 89.6493 46.461 89.6493 46.461Z" fill="#FFA47A" stroke="#FFA47A" stroke-width="1.48" stroke-linecap="round" stroke-linejoin="round"/>
<path d="M111.868 40.9165C106.095 41.6946 101.516 39.9429 94.3772 36.6646C94.3772 36.6646 90.7038 34.73 87.5407 38.6205C84.3775 42.511 89.6665 46.4696 89.6665 46.4696C94.7684 50.5259 98.1484 52.4733 104.3 51.4018L111.868 40.9165Z" fill="#FF7F4D" stroke="#FF7F4D" stroke-width="0.6" stroke-miterlimit="10"/>
<path d="M112.204 40.8823L109.147 49.973C107.888 50.2546 106.609 50.4351 105.321 50.513L112.204 40.8823Z" fill="#CF5540"/>
<path d="M133.118 31.0007C133.373 31.4259 133.568 32.0765 133.292 32.2508C133.016 32.4251 132.374 32.034 132.119 31.6258" fill="#CF5540"/>
<path d="M137.327 28.0628C137.327 28.0628 136.646 29.9974 136.655 29.9421L139.359 26.7234L137.327 28.0628Z" fill="#CF5540"/>
<path d="M85.5383 0.625C90.045 2.03239 101.303 17.2416 101.303 17.2416C103.256 19.0366 104.619 21.3821 105.21 23.9682C105.398 24.9291 104.747 27.7609 103.982 28.3519L88.9864 40.5337C88.9864 40.5337 76.9161 36.2563 79.8284 26.9275C82.7408 17.5987 85.2024 19.6142 83.7569 14.278C82.3113 8.9418 85.5383 0.625 85.5383 0.625Z" fill="#00043B"/>
<path d="M104.551 22.9221C103.796 20.7655 102.91 18.6569 101.898 16.608C100.725 14.5252 99.3794 12.544 97.8762 10.685C96.1916 8.36134 94.2647 6.22335 92.1281 4.30713C90.4529 2.86573 88.7268 1.49235 87.0261 0.0892098C86.7583 -0.131891 86.3714 0.250783 86.6392 0.471884C89.1434 2.53833 91.8219 4.48997 94.0498 6.84979C95.0849 7.97912 96.0626 9.15982 96.9791 10.3874C98.4236 12.1698 99.7501 14.0446 100.95 16C102.226 18.2365 103.127 20.6771 104.037 23.0752C104.16 23.3983 104.687 23.258 104.564 22.9306L104.551 22.9221Z" fill="#00043B"/>
<path d="M94.6877 24.6274C94.6682 24.6492 94.6443 24.6666 94.6175 24.6786C94.5908 24.6905 94.5618 24.6967 94.5325 24.6967C94.5033 24.6967 94.4743 24.6905 94.4476 24.6786C94.4208 24.6666 94.3969 24.6492 94.3774 24.6274C94.0415 24.2319 93.1316 23.3943 92.0177 24.2617C90.9038 25.1291 92.107 26.6683 92.4429 27.3869C92.9233 28.4371 93.2932 31.6388 92.1708 34.2538C91.3672 36.1459 88.1147 39.5049 88.1147 39.5049C88.1147 39.5049 92.5619 44.4797 95.8229 42.3027C95.8229 42.3027 96.146 35.2955 97.2174 33.9094C97.2429 33.8796 100.011 35.5421 103.144 30.8395C106.12 26.4047 103.174 23.6367 102.468 23.0669C101.86 22.5907 99.1221 19.9842 94.6877 24.6274Z" fill="#FFA47A"/>
<path d="M96.0482 39.4663C95.9419 39.4663 91.4819 41.6518 91.4819 41.6518C91.4819 41.6518 93.5397 43.7438 95.8143 42.3024L96.0482 39.4663Z" fill="#CF5540"/>
<path d="M102.124 31.9404L99.628 30.55C99.628 30.55 99.5812 32.0978 100.376 32.3741C101.171 32.6505 102.124 31.9404 102.124 31.9404Z" fill="white"/>
<path d="M93.9606 25.2649C93.629 24.9248 92.9955 24.7675 92.6553 25.0991C92.5064 25.2991 92.4329 25.5452 92.4477 25.7942C92.4624 26.0431 92.5646 26.2788 92.7361 26.4597" fill="#CF5540"/>
<path d="M102.009 29.7891L101.158 30.9711L101.847 31.2772C101.876 31.2899 101.908 31.2947 101.939 31.2914C101.971 31.2881 102.001 31.2766 102.026 31.2582C102.052 31.2398 102.073 31.215 102.086 31.1863C102.099 31.1576 102.105 31.1259 102.102 31.0944L102.009 29.7891Z" fill="#CF5540"/>
<path d="M104.462 25.2223C104.462 25.2223 97.2341 26.7488 94.377 24.627C91.5199 22.5053 98.9092 16.9395 101.669 20.239C104.428 23.5385 104.462 25.2223 104.462 25.2223Z" fill="#00043B"/>
<path d="M97.23 33.9175C96.1476 33.3477 95.2683 32.4565 94.7131 31.3664C94.2071 30.3502 94.2071 35.2867 96.4137 36.4687C96.4307 36.4304 96.8261 35.0911 97.23 33.9175Z" fill="#CF5540"/>
<path d="M101.052 26.9999C100.738 27.0382 101.477 26.5109 101.834 26.5747C101.997 26.6018 102.142 26.6922 102.237 26.8262C102.333 26.9602 102.372 27.1266 102.345 27.289C101.96 27.0462 101.503 26.9441 101.052 26.9999Z" fill="#00043B"/>
<path d="M104.36 28.0328C104.238 27.9174 104.077 27.853 103.909 27.853C103.741 27.853 103.58 27.9174 103.458 28.0328C103.755 28.147 104.02 28.3324 104.228 28.5728" fill="#00043B"/>
<path d="M101.018 29.0194C100.907 29.249 100.907 29.4786 101.018 29.5339C101.129 29.5892 101.307 29.4446 101.418 29.215C101.528 28.9854 101.528 28.7558 101.418 28.7005C101.307 28.6452 101.133 28.7898 101.018 29.0194Z" fill="#00043B"/>
<path d="M102.604 29.789C102.498 30.0058 102.498 30.2142 102.604 30.278C102.71 30.3418 102.885 30.1929 102.991 29.9761C103.097 29.7592 103.097 29.5509 102.991 29.4829C102.885 29.4148 102.71 29.5679 102.604 29.789Z" fill="#00043B"/>
<path opacity="0.37" d="M96.5708 29.1514C96.4901 29.4131 96.4887 29.6929 96.5669 29.9554C96.645 30.2179 96.7991 30.4514 97.0098 30.6264C97.2205 30.8013 97.4783 30.91 97.7507 30.9385C98.0231 30.9671 98.2978 30.9143 98.5402 30.7869C98.7826 30.6595 98.9818 30.4631 99.1127 30.2225C99.2436 29.9819 99.3003 29.7079 99.2757 29.4352C99.251 29.1624 99.1461 28.903 98.9742 28.6898C98.8023 28.4766 98.5711 28.3191 98.3097 28.2373C98.1356 28.1827 97.9523 28.163 97.7705 28.1795C97.5887 28.1959 97.412 28.2481 97.2504 28.333C97.0888 28.418 96.9456 28.534 96.829 28.6744C96.7124 28.8149 96.6246 28.977 96.5708 29.1514Z" fill="#E8632E" stroke="#E8632E" stroke-width="0.32" stroke-miterlimit="10"/>
<path d="M93.2885 23.0667C94.1388 23.9809 94.8318 25.0269 95.814 25.7922C96.6838 26.4841 97.7845 26.8186 98.8921 26.7277C101.065 26.5831 103.471 25.9411 105.095 24.4189C105.304 24.2233 104.989 23.9086 104.781 24.1042C103.25 25.5371 100.954 26.1494 98.8921 26.2812C98.3305 26.3259 97.7657 26.2534 97.2336 26.0682C96.7015 25.883 96.2137 25.5892 95.8012 25.2055C95.0232 24.4294 94.2894 23.6104 93.6031 22.7521C93.4118 22.5395 93.0972 22.8541 93.2885 23.0667Z" fill="#00043B"/>
<path d="M30.3057 45.1554C29.7955 41.7964 29.4979 33.4966 29.4979 33.4966L15.1147 34.2747C16.9472 35.1591 23.3841 39.1559 23.3841 39.1559L24.5193 45.5338C24.5193 45.5338 30.31 45.0959 30.3057 45.1554Z" fill="#FFA47A"/>
<path d="M23.3328 39.1476L14.9231 34.4407C14.8367 34.3978 14.7664 34.3283 14.7224 34.2424C14.6784 34.1565 14.6632 34.0588 14.6789 33.9636C14.6946 33.8684 14.7404 33.7808 14.8096 33.7136C14.8789 33.6464 14.9678 33.6031 15.0634 33.5903C18.5498 33.0503 27.9543 31.6642 30.4287 31.307C30.4989 31.2973 30.5705 31.3043 30.6375 31.3274C30.7045 31.3505 30.7651 31.3891 30.8144 31.4401C30.8637 31.491 30.9003 31.5529 30.9212 31.6206C30.9421 31.6884 30.9467 31.7601 30.9347 31.83C30.6668 33.5052 30.3097 38.1526 30.0843 39.5132C30.0503 39.7301 27.291 36.2945 26.3302 36.8515C25.5096 37.3362 23.4051 39.1178 23.3328 39.1476Z" fill="#64C962" stroke="#64C962" stroke-width="0.32" stroke-miterlimit="10"/>
<path d="M22.8357 38.905L24.1622 37.1277C24.3126 36.9245 24.3765 36.67 24.3399 36.4198C24.3032 36.1696 24.169 35.9441 23.9666 35.7926V35.7926C23.7627 35.6419 23.5076 35.5779 23.2567 35.6146C23.0059 35.6512 22.7796 35.7855 22.6274 35.9882L21.1436 37.9866" stroke="#F8F1EE" stroke-width="0.72" stroke-miterlimit="10"/>
<path d="M27.6739 41.2436C27.7632 43.2548 27.8908 45.2617 27.8908 45.2617L30.3992 45.1426L30.0761 39.5045C30.0761 39.5045 28.0226 37.183 27.6952 37.2042C27.5336 37.2042 27.5804 39.2324 27.6952 41.2436" fill="#CF5540"/>
<path d="M19.9825 72.1467C17.7504 69.9272 15.5438 63.1624 15.5438 63.1624C15.5438 63.1624 0.297564 67.6907 0.425112 67.7374C0.55266 67.7842 9.68084 71.1985 9.68084 71.1985L15.2674 75.3824C15.2674 75.3824 19.5063 72.3933 19.9825 72.1467Z" fill="#FFA47A" stroke="#FFA47A" stroke-width="1.3" stroke-miterlimit="10"/>
<path d="M9.42597 71.4325L0.365819 68.0607C0.28134 68.0262 0.209043 67.9674 0.158151 67.8916C0.107258 67.8159 0.0800781 67.7267 0.0800781 67.6355C0.0800781 67.5442 0.107258 67.4551 0.158151 67.3793C0.209043 67.3036 0.28134 67.2448 0.365819 67.2103C3.74159 66.1813 12.8528 63.4728 15.2464 62.767C15.5355 62.682 16.067 63.1497 16.1563 63.4431C16.7401 65.3838 17.4502 67.2842 18.2821 69.1322C18.3841 69.3235 12.8528 68.1542 11.9769 68.8388C11.2372 69.4213 9.68532 71.5855 9.42597 71.4325Z" fill="#64C962" stroke="#64C962" stroke-width="0.32" stroke-miterlimit="10"/>
<path d="M8.70335 71.0327L9.60895 68.7665C9.65603 68.6503 9.67974 68.5261 9.67872 68.4008C9.67769 68.2755 9.65196 68.1516 9.60298 68.0363C9.55401 67.9209 9.48276 67.8164 9.39332 67.7286C9.30387 67.6409 9.19799 67.5716 9.08175 67.5249V67.5249C8.96564 67.4778 8.84137 67.4541 8.71608 67.4551C8.59079 67.4561 8.46693 67.4819 8.35161 67.5309C8.23628 67.5798 8.13175 67.6511 8.04401 67.7405C7.95626 67.83 7.88703 67.9359 7.84028 68.0521L6.90918 70.3609" stroke="#F8F1EE" stroke-width="0.72" stroke-miterlimit="10"/>
<path d="M16.5856 74.8085L10.7567 70.1016L9.43018 71.4367L15.3654 75.7396L16.5856 74.8085Z" fill="#CF5540"/>
<path d="M76.3421 61.0365C78.1873 61.7423 79.5138 63.2858 80.1685 66.4535C80.8233 69.6212 83.995 64.4806 83.9014 67.661C82.6642 68.3456 75.9297 77.0153 73.604 77.9975C63.2812 82.2834 55.4285 84.1288 45.3862 82.1006C35.5693 80.115 29.9656 68.9196 27.1043 61.5C24.851 55.6621 24.8892 50.8956 23.8604 44.9387C24.158 44.2498 29.9699 44.0883 30.2845 44.3561C34.2428 56.64 39.7273 63.4899 47.1846 64.893C54.153 66.2154 59.0891 65.1269 64.191 63.4941C64.1995 63.4941 69.8881 58.5619 76.3421 61.0365Z" fill="#3748A6" stroke="#3748A6" stroke-width="0.3" stroke-miterlimit="10"/>
<g style="mix-blend-mode:multiply" opacity="0.43">
<g style="mix-blend-mode:multiply" opacity="0.43">
<path d="M47.1929 64.893C54.1612 66.2153 59.0973 65.1268 64.1993 63.4941C64.1993 63.4941 69.8964 58.5618 76.3503 61.0365C78.1955 61.7423 79.522 63.2857 80.1768 66.4534C80.8315 69.6211 83.8034 64.8122 83.7269 67.9926C82.4896 68.6815 75.9379 77.0323 73.6123 77.9975" fill="#3748A6"/>
</g>
</g>
<path d="M83.3314 66.4749C80.1002 63.4985 73.9779 58.7449 73.438 59.0765C67.8896 59.7398 62.4944 64.0768 60.0029 68.8305C59.5308 69.7514 58.9436 70.6087 58.2555 71.3816C55.1221 74.8767 51.5975 77.9084 45.7218 80.1661C38.6386 82.8916 29.9909 80.4255 20.1739 72.0875C19.0855 73.2355 15.2761 75.0298 15.3866 75.7739C19.3959 80.298 21.8746 84.0992 26.866 87.8792C33.2008 92.6711 43.8723 99.2446 53.2556 95.7623C61.6169 92.7032 68.9193 87.2987 74.2883 80.1959L83.3314 66.4749Z" fill="#3F51B5" stroke="#3F51B5" stroke-width="0.3" stroke-miterlimit="10"/>
<g style="mix-blend-mode:multiply" opacity="0.5">
<path d="M73.1274 81.5477C73.1274 81.5477 44.8586 109.143 15.7861 75.4504C15.7861 75.4504 22.5249 87.1178 36.3681 93.5552C37.0356 93.079 51.4145 105.537 73.1274 81.5477Z" fill="#3F51B5"/>
</g>
<path d="M96.0183 40.066C96.2181 40.4529 97.6041 50.4747 95.6569 53.8465C94.3516 56.1085 86.9964 62.8521 83.7056 66.9892C83.7056 66.9892 77.0306 62.8436 73.2935 59.255C74.3351 55.3517 77.8554 40.2105 85.0364 36.2307C86.55 36.5614 88.0433 36.9788 89.5091 37.4808C89.5091 37.4808 93.4163 44.0968 96.0183 40.066Z" fill="#FFA47A" stroke="#FFA47A" stroke-width="1.48" stroke-linecap="round" stroke-linejoin="round"/>
<path d="M73.5997 57.01L73.2979 58.2006L81.4184 65.3268L73.5997 57.01Z" fill="#CF5540"/>
<path d="M96.0183 40.066C96.2181 40.4529 97.6041 50.4747 95.6569 53.8465C94.3517 56.1085 86.9964 62.8521 83.7057 66.9892C83.7057 66.9892 81.6564 65.6244 72.5537 55.4325C73.5954 51.5249 77.8555 40.2105 85.0364 36.2307C86.55 36.5614 88.0433 36.9788 89.5091 37.4808C89.5091 37.4808 93.4163 44.0968 96.0183 40.066Z" fill="#F8F1EE" stroke="#F8F1EE" stroke-width="1.48" stroke-miterlimit="10"/>
<g style="mix-blend-mode:multiply">
<path d="M83.7057 66.9892C83.7057 66.9892 81.6564 65.6244 72.5537 55.4325C73.5954 51.5249 77.8555 40.2105 85.0364 36.2307C86.55 36.5614 88.0433 36.9788 89.5091 37.4808" fill="#F8F1EE"/>
<path d="M83.7057 66.9892C83.7057 66.9892 81.6564 65.6244 72.5537 55.4325C73.5954 51.5249 77.8555 40.2105 85.0364 36.2307C86.55 36.5614 88.0433 36.9788 89.5091 37.4808" stroke="#F8F1EE" stroke-width="1.48" stroke-linecap="round" stroke-linejoin="round"/>
</g>
<path d="M159.911 131.891L219.183 157.432C220.349 157.925 221.657 157.966 222.852 157.548C224.047 157.13 225.044 156.283 225.649 155.17L263.599 84.2564C265.104 81.4883 265.036 78.3292 262.056 77.3002C262.056 77.3002 249.165 65.6073 226.466 59.0168C219.888 57.112 198.558 55.2454 198.558 55.2454L159.911 131.891Z" stroke="#F8F1EE" stroke-width="1.06" stroke-linecap="round" stroke-linejoin="round"/>
<path d="M162.569 132.979L106.584 100.269C105.495 99.6185 104.687 98.5856 104.318 97.3718C103.95 96.1581 104.046 94.8505 104.59 93.7041L138.033 22.2375C139.385 19.3887 142.599 19.1548 145.558 20.2391C154.886 23.6406 163.177 21.9058 181.871 36.3965C187.287 40.5974 201.364 56.7505 201.364 56.7505L162.569 132.979Z" stroke="#F8F1EE" stroke-width="1.06" stroke-linecap="round" stroke-linejoin="round"/>
<path d="M260.198 78.3419C260.198 78.3419 247.8 67.0955 225.964 60.7686C219.91 59.0126 200.858 57.2948 199.234 57.1502C197.495 55.1603 185.544 41.5754 180.723 37.8422C162.751 23.9171 154.788 25.6008 145.813 22.3141C142.977 21.2596 139.878 21.4935 138.602 24.236L106.456 92.9303C105.935 94.0304 105.841 95.285 106.193 96.4503C106.545 97.6156 107.318 98.6085 108.361 99.2359L162.063 130.615H162.135L218.957 155.417C220.078 155.891 221.336 155.931 222.484 155.53C223.633 155.128 224.592 154.313 225.173 153.244L261.69 85.0387C263.14 82.3685 263.072 79.3326 260.198 78.3419Z" fill="#3748A6" stroke="#3748A6" stroke-width="0.3" stroke-miterlimit="10"/>
<path d="M158.823 129.029L164.937 132.218L202.84 57.5839C200.51 57.4201 198.315 56.4277 196.653 54.7861L158.823 129.029Z" fill="#1D2B47" stroke="#1D2B47" stroke-width="0.3" stroke-miterlimit="10"/>
<path d="M256.087 80.9865C256.087 80.9865 230.505 62.5118 198.354 58.8764C176.505 35.1591 146.68 25.4009 146.68 25.4009L110.967 94.7585C118.101 96.6847 157.092 123.123 162.913 127.813L162.853 127.941C162.939 127.948 163.024 127.959 163.108 127.975C163.277 128.104 163.437 128.247 163.585 128.4L163.746 128.085C169.384 129.284 195.259 137.184 221.028 150.659L256.087 80.9865Z" fill="#CFB2A3"/>
<path d="M180.498 44.8112C180.498 44.8112 183.899 34.7213 191.033 31.7662C191.128 31.727 191.23 31.7108 191.333 31.7188C191.435 31.7268 191.534 31.7588 191.621 31.8123C191.708 31.8658 191.782 31.9392 191.836 32.0265C191.889 32.1138 191.922 32.2126 191.93 32.3147L192.138 34.581L194.821 34.9467C194.942 34.9622 195.056 35.0117 195.15 35.0895C195.243 35.1673 195.313 35.2702 195.35 35.3861C195.388 35.502 195.392 35.6262 195.361 35.7442C195.331 35.8621 195.267 35.9689 195.178 36.0522C192.534 38.5268 185.502 45.7849 185.702 48.4721L180.498 44.8112Z" fill="#FF7F4D" stroke="#FF7F4D" stroke-width="0.6" stroke-miterlimit="10"/>
<g opacity="0.76">
<path opacity="0.76" d="M182.172 44.8368C182.474 44.0842 182.661 43.2976 182.997 42.5578C183.309 41.8662 183.676 41.2007 184.094 40.5679C184.957 39.2957 185.909 38.0865 186.943 36.9495C187.368 36.4775 186.666 35.7802 186.25 36.2564C185.162 37.4619 184.157 38.7405 183.244 40.0831C182.815 40.7373 182.439 41.424 182.117 42.1368C181.76 42.9362 181.547 43.7823 181.224 44.5902C180.99 45.177 181.939 45.4406 182.168 44.8496L182.172 44.8368Z" fill="#F2FCF9"/>
<path opacity="0.76" d="M188.388 35.2359L189.528 34.2707C189.574 34.2251 189.61 34.1708 189.635 34.1109C189.66 34.0511 189.673 33.9869 189.672 33.9221C189.671 33.7929 189.619 33.6693 189.528 33.5777C189.436 33.4873 189.312 33.4356 189.183 33.4331C189.053 33.4374 188.93 33.4888 188.835 33.5777L187.695 34.5429C187.649 34.5877 187.613 34.6413 187.588 34.7004C187.563 34.7596 187.551 34.8231 187.551 34.8873C187.551 35.0173 187.602 35.1422 187.694 35.2345C187.785 35.3269 187.91 35.3794 188.04 35.3805C188.169 35.3733 188.292 35.3223 188.388 35.2359Z" fill="#F2FCF9"/>
</g>
<path d="M147.905 27.9777C152.798 26.7361 152.934 27.7098 157.828 28.9684C162.303 30.0184 166.593 31.7386 170.553 34.0707C174.571 36.405 179.443 39.73 182.772 42.9743C188.15 48.2169 192.976 53.0514 198.006 58.6384L162.756 126.499C162.756 126.499 129.376 86.4376 114.109 93.887L147.905 27.9777Z" fill="#F8F1EE"/>
<path d="M148.007 28.3433C149.512 27.9648 151.102 27.6034 152.662 27.8841C154.155 28.1519 155.587 28.7344 157.046 29.1596C158.976 29.6911 160.902 30.1886 162.79 30.8604C164.605 31.509 166.375 32.2789 168.087 33.165C171.647 35.0328 175.042 37.1991 178.236 39.6407C181.59 42.1918 184.52 45.215 187.496 48.1828C190.995 51.6822 194.426 55.2495 197.738 58.9275L197.7 58.464L196.756 60.2796L194.205 65.2203L190.408 72.5294L185.799 81.4032L180.727 91.1827L175.591 101.026L170.812 110.219L166.778 117.987L163.878 123.57L162.981 125.3C162.804 125.591 162.646 125.894 162.509 126.206C162.492 126.247 162.472 126.287 162.449 126.325L163.049 126.248C161.914 124.888 160.736 123.565 159.554 122.252C156.691 119.077 153.737 115.987 150.69 112.982C146.923 109.239 142.948 105.71 138.785 102.412C134.891 99.3634 130.75 96.4593 126.192 94.4992C122.791 93.0238 118.773 91.8885 115.116 93.0961C114.713 93.2286 114.32 93.3892 113.939 93.5765L114.462 94.0953L115.363 92.3392L117.816 87.5515L121.464 80.4338L125.898 71.7853L130.754 62.312L135.626 52.7537L140.197 43.8246L144.078 36.2519L146.855 30.8349C147.28 29.9845 147.747 29.1341 148.173 28.2837C148.173 28.2455 148.211 28.2115 148.228 28.1732C148.453 27.748 147.803 27.3483 147.569 27.7863L146.68 29.5423L144.227 34.33L140.579 41.4477L136.136 50.0962L131.285 59.5653L126.383 69.1279L121.813 78.0569L117.931 85.6297L115.155 91.0424C114.73 91.8928 114.262 92.7431 113.837 93.5935L113.781 93.7041C113.741 93.777 113.725 93.8611 113.737 93.9437C113.749 94.0262 113.787 94.1027 113.847 94.1614C113.906 94.2201 113.983 94.2579 114.065 94.269C114.148 94.2801 114.232 94.2639 114.304 94.2228C117.633 92.6156 121.532 93.4745 124.831 94.7543C129.313 96.5019 133.398 99.2614 137.208 102.157C141.377 105.372 145.352 108.833 149.112 112.519C152.273 115.575 155.331 118.734 158.287 121.996C159.245 123.048 160.189 124.108 161.119 125.177C161.544 125.674 161.969 126.248 162.437 126.712L162.492 126.776C162.533 126.817 162.583 126.848 162.639 126.867C162.694 126.886 162.753 126.892 162.81 126.884C162.868 126.877 162.924 126.856 162.972 126.824C163.021 126.792 163.062 126.749 163.091 126.699L164.035 124.884L166.586 119.943L170.387 112.634L174.996 103.76L180.068 93.9805L185.17 84.1245L189.945 74.9318L194.005 67.1805L196.909 61.5977C197.364 60.7175 197.836 59.8459 198.278 58.9572C198.278 58.919 198.316 58.8807 198.337 58.8424C198.377 58.7687 198.393 58.6843 198.382 58.6011C198.372 58.5179 198.335 58.4402 198.278 58.379C195.27 55.0426 192.18 51.7828 189.005 48.5995C185.965 45.5424 182.968 42.3747 179.579 39.7044C176.341 37.1487 172.892 34.8728 169.269 32.9013C165.826 31.0684 162.174 29.6565 158.393 28.6962C157.322 28.4113 156.268 28.1137 155.201 27.7778C154.486 27.5289 153.758 27.3202 153.019 27.1527C151.268 26.7998 149.512 27.1527 147.803 27.5779C147.701 27.605 147.615 27.6713 147.562 27.7622C147.509 27.8531 147.495 27.9611 147.522 28.0626C147.549 28.1641 147.615 28.2507 147.706 28.3033C147.797 28.356 147.905 28.3703 148.007 28.3433Z" fill="#F8F1EE"/>
<path d="M116.145 94.2954C119.632 94.8311 122.829 96.3576 125.924 97.9818C128.892 99.538 131.79 101.215 134.619 103.012C140.275 106.606 145.624 110.664 150.609 115.143C153.398 117.651 156.065 120.285 158.61 123.043C158.946 123.404 159.486 122.86 159.15 122.503C149.97 112.571 139.201 104.237 127.285 97.8415C123.837 95.9919 120.257 94.1593 116.345 93.5598C115.865 93.4832 115.656 94.2188 116.141 94.2954H116.145Z" fill="#F8F1EE"/>
<path d="M114.194 94.6566C121.225 97.7885 128.007 101.455 134.478 105.622C141.274 109.942 147.805 114.666 154.035 119.769C157.318 122.456 160.506 125.255 163.602 128.166C163.954 128.502 164.499 127.966 164.137 127.626C158.493 122.325 152.529 117.373 146.281 112.8C139.811 108.008 133.043 103.634 126.017 99.7036C122.285 97.6329 118.471 95.7068 114.564 93.9975C114.117 93.8019 113.713 94.461 114.177 94.6566H114.194Z" fill="#F8F1EE"/>
<path d="M253.757 81.9009L243.383 101.46C239.922 107.979 236.463 114.499 233.005 121.019L227.146 132.074C226.917 132.499 227.571 132.89 227.805 132.456C231.266 125.937 234.725 119.417 238.183 112.898L248.557 93.3386L254.416 82.2836C254.646 81.8584 253.991 81.4629 253.757 81.8966V81.9009Z" fill="#F8F1EE"/>
<path d="M252.69 80.9484C250.806 76.2712 249.943 76.7219 246.044 73.5117C242.146 70.3015 239.029 68.2691 234.416 66.2367C230.165 64.3615 224.608 62.3844 220.025 61.602C212.623 60.3265 205.922 59.5058 198.448 58.7405L162.836 126.937C162.836 126.937 216.832 131.81 219.808 148.533L252.69 80.9484Z" fill="#F8F1EE"/>
<path d="M253.055 80.8463C252.575 79.4813 251.883 78.2001 251.006 77.0493C250.228 76.2155 249.353 75.4776 248.4 74.8511C246.89 73.7456 245.47 72.521 243.978 71.39C242.396 70.1812 240.734 69.0803 239.004 68.0947C235.344 66.0884 231.5 64.4396 227.524 63.171C225.479 62.4813 223.395 61.9134 221.283 61.4702C219.017 61.0068 216.713 60.6836 214.425 60.3435C209.115 59.5526 203.796 58.9233 198.439 58.3748C198.373 58.3738 198.308 58.3906 198.25 58.4235C198.192 58.4564 198.145 58.5042 198.112 58.5619L197.168 60.3775L194.579 65.3352L190.752 72.6741L186.076 81.6032L180.948 91.4166L175.778 101.315L170.957 110.55L166.884 118.353L163.95 123.965C163.487 124.854 163.011 125.734 162.56 126.631C162.56 126.669 162.522 126.708 162.5 126.746C162.468 126.804 162.452 126.869 162.452 126.936C162.453 127.002 162.47 127.067 162.503 127.125C162.536 127.183 162.583 127.231 162.64 127.265C162.697 127.299 162.762 127.318 162.828 127.32C164.614 127.482 166.395 127.694 168.172 127.92C172.506 128.467 176.82 129.14 181.114 129.939C186.47 130.903 191.772 132.147 196.998 133.664C201.896 135.11 206.777 136.84 211.237 139.408C214.434 141.254 217.912 143.796 219.123 147.461C219.248 147.846 219.348 148.238 219.421 148.635C219.441 148.707 219.483 148.771 219.539 148.82C219.596 148.869 219.666 148.9 219.74 148.909C219.814 148.919 219.89 148.906 219.957 148.873C220.024 148.841 220.08 148.789 220.118 148.724L220.994 146.921L223.383 142.015L226.921 134.752L231.257 125.823L235.985 116.112L240.76 106.307L245.211 97.1653L248.969 89.4395L251.695 83.895C252.12 83.0148 252.545 82.1389 252.97 81.2545C252.97 81.2162 253.008 81.178 253.025 81.1397C253.242 80.7145 252.6 80.3148 252.371 80.757L251.491 82.5598L249.101 87.4708L245.564 94.7332L241.227 103.641L236.491 113.357L231.716 123.136L227.265 132.278L223.507 140.008L220.798 145.565L219.948 147.304C219.786 147.595 219.644 147.896 219.523 148.206C219.523 148.244 219.485 148.282 219.468 148.32L220.165 148.41C219.476 144.621 216.394 141.806 213.324 139.774C209.111 136.985 204.281 135.144 199.494 133.609C194.216 131.958 188.847 130.612 183.414 129.578C178.831 128.679 174.224 127.927 169.592 127.32C168.091 127.12 166.591 126.933 165.085 126.767L163.665 126.614C163.422 126.571 163.177 126.547 162.93 126.542C162.899 126.546 162.867 126.546 162.836 126.542L163.168 127.116L164.12 125.296L166.701 120.33L170.527 112.995L175.204 104.045L180.306 94.2357L185.48 84.3372L190.302 75.1062L194.375 67.3039L197.308 61.6913L198.218 59.9438C198.399 59.6505 198.56 59.345 198.699 59.0296C198.715 58.9897 198.735 58.9513 198.758 58.9148L198.426 59.1019C203.103 59.5866 207.78 60.1224 212.414 60.8027C216.793 61.4234 221.19 62.0315 225.437 63.3113C229.435 64.4931 233.318 66.0328 237.039 67.9119C238.734 68.7838 240.368 69.7667 241.933 70.8542C243.583 72.0023 245.109 73.2991 246.695 74.5364C247.787 75.3868 249.003 76.1267 249.99 77.0876C251.095 78.1718 251.729 79.6388 252.298 81.0376C252.503 81.5011 253.242 81.3013 253.055 80.8463Z" fill="#F8F1EE"/>
<path opacity="0.42" d="M197.67 58.8042C197.67 58.8042 176.531 93.6021 164.537 98.4195C148.024 105.065 126.795 94.6481 126.795 94.6481C126.795 94.6481 159.171 115.517 162.738 126.538L197.67 58.8042Z" fill="#E0CFC8"/>
<path opacity="0.42" d="M200.854 58.209C200.854 58.209 185.863 96.0513 189.247 108.526C193.924 125.704 215.029 136.347 215.029 136.347C215.029 136.347 178.852 123.119 167.938 126.912L200.854 58.209Z" fill="#E0CFC8"/>
<path opacity="0.46" d="M149.86 35.6567C150.572 35.6055 151.288 35.6541 151.986 35.8012C152.331 35.8523 152.658 35.9543 152.994 36.0308C153.33 36.1074 153.644 36.2392 153.972 36.3455C154.299 36.4518 154.61 36.5963 154.92 36.7367C155.23 36.877 155.545 37.0258 155.842 37.2086C156.473 37.552 157.052 37.9813 157.564 38.4842L157.535 38.5692C156.234 38.144 154.954 37.6593 153.661 37.2044C152.369 36.7494 151.11 36.2604 149.835 35.7545L149.86 35.6567Z" fill="#64C962"/>
<path opacity="0.46" d="M161.706 40.9885L162.76 41.4137L163.802 41.8389L165.86 42.7701L167.879 43.7948C168.538 44.1562 169.193 44.5346 169.852 44.9003C170.511 45.266 171.149 45.6784 171.786 46.0781L173.682 47.3239L175.523 48.642L177.33 50.0111L179.078 51.4568C179.643 51.9543 180.221 52.4432 180.778 52.9492L182.424 54.5097C182.964 55.0369 183.487 55.5812 184.014 56.1212C184.541 56.6612 185.038 57.2267 185.54 57.7922L187.003 59.5185L188.38 61.3128C188.827 61.9166 189.26 62.5331 189.685 63.1539L189.613 63.2134C181.901 54.009 172.392 46.4754 161.667 41.0736L161.706 40.9885Z" fill="#64C962"/>
<path opacity="0.46" d="M145.039 44.1182H145.958L146.876 44.1522L148.717 44.3138L150.541 44.5986C151.145 44.7219 151.744 44.8665 152.348 44.9983C152.952 45.1301 153.543 45.3215 154.134 45.5L155.889 46.0953C156.468 46.3207 157.037 46.563 157.59 46.7969L159.291 47.575L160.923 48.4594C161.451 48.7783 161.986 49.0887 162.513 49.4203L164.04 50.4706C164.537 50.8362 165.022 51.2189 165.507 51.6016C165.991 51.9843 166.45 52.4009 166.91 52.8091L168.232 54.0847L169.461 55.4623C169.852 55.9343 170.23 56.419 170.596 56.908L170.528 56.9718C163.76 49.8862 154.744 45.3663 145.018 44.1819L145.039 44.1182Z" fill="#64C962"/>
<path opacity="0.46" d="M175.115 61.9463C176.081 62.3452 177.005 62.838 177.874 63.4175C178.299 63.6853 178.725 63.9957 179.15 64.2678C179.575 64.54 179.962 64.8886 180.366 65.2033C180.77 65.5179 181.148 65.8623 181.531 66.2067C181.913 66.5511 182.287 66.8956 182.64 67.274C183.385 68.0058 184.055 68.809 184.643 69.6721L184.588 69.7401L179.796 65.9134L175.064 62.0058L175.115 61.9463Z" fill="#64C962"/>
<path opacity="0.46" d="M138.386 62.4185C139.389 62.6863 140.405 62.9372 141.396 63.2688L142.892 63.7408C143.39 63.8981 143.879 64.0767 144.376 64.2468C146.34 64.9569 148.271 65.769 150.184 66.6194C153.996 68.3612 157.659 70.4132 161.136 72.7549C164.62 75.0929 167.903 77.7184 170.949 80.604C172.475 82.0369 173.925 83.5421 175.349 85.0686C176.042 85.8467 176.731 86.6333 177.415 87.4199C178.1 88.2065 178.772 88.9973 179.431 89.8052L179.367 89.869C176.48 86.8926 173.597 83.8738 170.481 81.1227C167.378 78.3593 164.088 75.8134 160.634 73.5033C157.19 71.1763 153.592 69.0852 149.865 67.2444C146.138 65.4106 142.293 63.8268 138.356 62.5035L138.386 62.4185Z" fill="#64C962"/>
<path opacity="0.46" d="M135.597 70.0125C136.826 70.1646 138.034 70.4497 139.202 70.8628C139.793 71.0457 140.354 71.288 140.928 71.5134C141.502 71.7387 142.042 72.0236 142.595 72.2872C143.147 72.5509 143.679 72.8655 144.206 73.1801C144.733 73.4948 145.252 73.8179 145.745 74.1836C146.767 74.8839 147.709 75.6937 148.555 76.5987L148.504 76.6752C144.404 74.0892 140.071 71.8913 135.562 70.1102L135.597 70.0125Z" fill="#64C962"/>
<path opacity="0.46" d="M154.108 81.2588L154.758 81.6372L155.396 82.0326L156.672 82.8192C157.501 83.3635 158.326 83.9163 159.133 84.4903C159.941 85.0643 160.732 85.6553 161.531 86.2378L163.882 88.0534C164.643 88.6827 165.417 89.2992 166.174 89.937C166.931 90.5748 167.688 91.2126 168.419 91.8844C169.15 92.5562 169.886 93.2195 170.604 93.9041C171.323 94.5886 172.024 95.2902 172.692 96.03L172.615 96.0938L163.3 88.7379L154.036 81.3141L154.108 81.2588Z" fill="#64C962"/>
<path opacity="0.46" d="M141.026 92.1138C141.889 92.033 142.76 92.1418 143.577 92.4327C143.979 92.5664 144.372 92.7254 144.755 92.9089C145.129 93.1002 145.49 93.3341 145.847 93.5297C146.204 93.7253 146.536 94.0102 146.859 94.2738C147.178 94.5417 147.483 94.8255 147.773 95.1242C148.373 95.7235 148.876 96.4137 149.261 97.1694L149.197 97.2331C147.996 96.1587 146.717 95.1738 145.371 94.2865C144.698 93.8408 143.998 93.4375 143.275 93.079C142.553 92.7192 141.801 92.426 141.026 92.2031V92.1138Z" fill="#64C962"/>
<path opacity="0.46" d="M202.801 68.0608C203.604 67.8715 204.431 67.8027 205.254 67.8567C205.658 67.8567 206.054 67.9247 206.453 67.9672C206.853 68.0097 207.244 68.1118 207.635 68.1926C208.027 68.2734 208.413 68.4009 208.792 68.5285C209.173 68.6507 209.548 68.7927 209.914 68.9537C210.671 69.2756 211.377 69.7052 212.01 70.2293L211.981 70.3143C210.475 69.8423 208.966 69.3959 207.427 69.0387C205.888 68.6815 204.345 68.3754 202.789 68.1203L202.801 68.0608Z" fill="#64C962"/>
<path opacity="0.46" d="M217.593 72.0405C218.8 72.1638 219.982 72.4147 221.173 72.6401L222.937 73.0652C223.524 73.2268 224.102 73.4097 224.684 73.5797C225.267 73.7498 225.837 73.9582 226.385 74.1622L228.086 74.8128C228.647 75.0467 229.2 75.2975 229.757 75.5399L231.406 76.3137L233.013 77.1641C233.541 77.466 234.076 77.7551 234.599 78.0655L236.138 79.035C236.644 79.3709 237.146 79.7153 237.639 80.0639C238.132 80.4126 238.621 80.7783 239.102 81.1482L240.509 82.2962C241.406 83.1126 242.316 83.9077 243.141 84.7964L243.085 84.8686C235.585 78.8373 226.877 74.4873 217.55 72.1128L217.593 72.0405Z" fill="#64C962"/>
<path opacity="0.46" d="M198.75 77.2577C200.372 77.0712 202.012 77.0869 203.631 77.3044C204.443 77.3937 205.242 77.5596 206.045 77.7296C206.441 77.8189 206.836 77.9295 207.232 78.0315L208.409 78.3717L209.562 78.7969C209.944 78.9499 210.327 79.086 210.701 79.2476C211.445 79.5877 212.189 79.9194 212.903 80.3233C214.344 81.0932 215.683 82.0387 216.891 83.1381L216.845 83.2146C211.343 79.8938 205.146 77.8927 198.741 77.3682L198.75 77.2577Z" fill="#64C962"/>
<path opacity="0.46" d="M223.303 85.6169C224.922 86.0142 226.507 86.5403 228.043 87.1902C228.817 87.4963 229.565 87.8577 230.322 88.1979C231.079 88.538 231.802 88.942 232.541 89.3246C233.281 89.7073 233.987 90.141 234.688 90.5662C235.39 90.9914 236.1 91.4378 236.78 91.9183C238.165 92.8471 239.474 93.8835 240.696 95.018L240.645 95.0945C237.862 93.3342 235.014 91.676 232.103 90.1197C229.192 88.5635 226.243 87.0895 223.256 85.6977L223.303 85.6169Z" fill="#64C962"/>
<path opacity="0.46" d="M193.095 88.0489C193.918 88.0237 194.74 88.0994 195.544 88.2743C195.944 88.3381 196.322 88.4571 196.713 88.5464C197.104 88.6357 197.47 88.7845 197.853 88.9036C198.235 89.0226 198.597 89.1842 198.962 89.3288C199.328 89.4733 199.694 89.6434 200.047 89.8433C200.783 90.2095 201.473 90.6635 202.1 91.1954L202.07 91.2804C200.557 90.7914 199.06 90.2557 197.551 89.7412C196.042 89.2267 194.575 88.6825 193.065 88.1212L193.095 88.0489Z" fill="#64C962"/>
<path opacity="0.46" d="M205.455 92.8283C205.845 92.7639 206.242 92.7639 206.632 92.8283C206.96 92.881 207.28 92.9738 207.585 93.1046C207.886 93.2395 208.171 93.4078 208.435 93.6064C208.75 93.844 209.024 94.1312 209.247 94.4568L209.226 94.5418C208.538 94.4118 207.867 94.2079 207.223 93.9338C206.58 93.655 205.969 93.3087 205.399 92.9006L205.455 92.8283Z" fill="#64C962"/>
<path d="M81.6649 41.3798C80.2534 60.7006 110.614 71.4878 110.614 71.4878L117.417 73.3034C123.441 77.0323 126.507 77.5298 126.507 77.5298L122.536 75.1444L128.641 77.0536C128.807 77.1046 128.411 76.6624 128.258 76.5816L123.581 74.0772L129.857 75.6504C129.885 75.6545 129.913 75.6489 129.937 75.6346C129.961 75.6203 129.98 75.5982 129.99 75.5719C130 75.5457 130 75.5168 129.992 75.49C129.983 75.4633 129.965 75.4404 129.942 75.4251L124.062 72.4487C124.062 72.4487 130.095 73.8349 129.589 73.2991C129.083 72.7634 123.148 70.4205 123.148 70.4205C123.148 70.4205 125.091 67.5462 124.916 67.2911C124.632 66.8659 122.553 68.099 120.422 68.4349C119.083 68.6432 108.981 64.3488 108.981 64.3488C101.252 60.8792 91.2438 52.1925 92.4002 39.7513C92.4002 39.7513 91.924 35.6227 86.9327 35.206C81.9413 34.7893 81.6649 41.3798 81.6649 41.3798Z" fill="#FFA47A" stroke="#FFA47A" stroke-width="1.48" stroke-linecap="round" stroke-linejoin="round"/>
<path d="M98.769 56.6103C94.866 52.2776 93.7308 47.5069 92.4256 39.7599C92.4256 39.7599 91.9494 35.6312 86.958 35.2145C81.9667 34.7978 81.6648 41.3799 81.6648 41.3799C81.1886 47.8811 81.482 51.7673 85.8356 56.2617L98.769 56.6103Z" fill="#FF7F4D" stroke="#FF7F4D" stroke-width="0.6" stroke-miterlimit="10"/>
<path d="M99.16 56.8908L89.5812 59.1784C88.685 58.4125 87.8687 57.5578 87.145 56.6272L99.16 56.8908Z" fill="#CF5540"/>
<path d="M151.654 121.469C147.773 132.333 140.286 139.183 129.546 138.43C120.911 137.826 112.905 133.893 105.159 130.033C102.502 128.71 99.785 127.341 97.7868 125.147C94.8532 121.916 93.9093 117.392 93.0802 113.106C92.2512 108.82 91.4264 104.559 90.5973 100.286C89.9681 97.029 89.2921 93.6658 87.3831 90.9318C85.4741 88.1978 81.9666 86.3312 78.8076 87.3431C75.6487 88.3551 74.0161 93.0492 76.5288 95.2432C81.7837 92.0883 81.4351 84.3753 79.6537 78.5076C76.6627 68.6858 71.5869 59.6255 64.7731 51.9457C60.0963 46.6988 54.1016 41.9111 47.0865 41.5965C38.0093 41.1713 30.3734 48.2933 25.1525 55.73C19.7402 63.4345 15.5609 72.3125 14.9784 81.7008C14.685 86.429 15.6034 91.7396 19.3788 94.5969C23.1542 97.4542 30.1098 95.5324 30.2714 90.7999" stroke="#FF7F4D" stroke-width="2.12" stroke-linecap="round" stroke-linejoin="round" stroke-dasharray="9.09 9.09"/>
<g style="mix-blend-mode:lighten">
<path d="M243.098 83.3635C245.649 84.418 248.646 83.8524 250.993 82.4153C253.34 80.9781 255.109 78.7671 256.593 76.4626C258.667 73.2098 260.308 69.3321 259.492 65.5606C259.067 63.5792 257.996 61.8019 256.818 60.1564C255.404 58.054 253.631 56.2174 251.58 54.7309C249.501 53.3114 247.09 52.4554 244.581 52.2465C242.073 52.0376 239.553 52.4829 237.268 53.5389C234.984 54.5949 233.012 56.2255 231.545 58.2714C230.079 60.3174 229.168 62.7088 228.902 65.2119" stroke="#F8F1EE" stroke-width="2.12" stroke-linecap="round" stroke-linejoin="round" stroke-dasharray="7.33 7.33"/>
</g>
<path d="M177.292 25.9368C177.209 26.374 176.999 26.7769 176.687 27.0944C176.376 27.412 175.977 27.6299 175.541 27.7207C175.106 27.8116 174.653 27.7711 174.24 27.6046C173.828 27.4381 173.474 27.1529 173.223 26.7852C172.973 26.4174 172.837 25.9837 172.833 25.5387C172.829 25.0938 172.957 24.6577 173.201 24.2856C173.445 23.9135 173.794 23.6221 174.204 23.4482C174.613 23.2744 175.065 23.226 175.502 23.3091C175.792 23.3637 176.069 23.4751 176.316 23.6368C176.563 23.7985 176.776 24.0074 176.942 24.2515C177.109 24.4956 177.225 24.7701 177.285 25.0593C177.345 25.3485 177.347 25.6467 177.292 25.9368Z" fill="#FF7F4D"/>
<path d="M102.09 83.1595C101.985 83.713 101.718 84.2231 101.324 84.6251C100.929 85.0272 100.424 85.3032 99.8728 85.4183C99.3214 85.5334 98.7482 85.4823 98.2257 85.2717C97.7033 85.061 97.255 84.7001 96.9376 84.2347C96.6202 83.7692 96.4479 83.2201 96.4425 82.6568C96.4371 82.0934 96.5989 81.5411 96.9074 81.0697C97.2158 80.5983 97.6571 80.2289 98.1754 80.0083C98.6938 79.7877 99.2659 79.7257 99.8195 79.8302C100.187 79.8991 100.538 80.04 100.852 80.2448C101.165 80.4495 101.435 80.7142 101.646 81.0235C101.857 81.3328 102.005 81.6807 102.081 82.0472C102.157 82.4138 102.16 82.7917 102.09 83.1595Z" fill="#64C962" stroke="#64C962" stroke-width="1.06" stroke-linecap="round" stroke-linejoin="round" stroke-dasharray="9.09 9.09"/>
<path d="M7.49125 102.731C8.70991 102.731 9.69783 101.743 9.69783 100.524C9.69783 99.3056 8.70991 98.3176 7.49125 98.3176C6.27259 98.3176 5.28467 99.3056 5.28467 100.524C5.28467 101.743 6.27259 102.731 7.49125 102.731Z" stroke="#64C962" stroke-width="0.95" stroke-miterlimit="10"/>
</svg>
