<svg width="474" height="45" viewBox="0 0 474 45" fill="none" xmlns="http://www.w3.org/2000/svg">
<g clip-path="url(#clip0_1003_2304)">
<path d="M12 17C9.87827 17 7.84344 17.8429 6.34315 19.3431C4.84285 20.8434 4 22.8783 4 25H7C7.53043 25 8.03914 25.2107 8.41421 25.5858C8.78929 25.9609 9 26.4696 9 27V32C9 32.5304 8.78929 33.0391 8.41421 33.4142C8.03914 33.7893 7.53043 34 7 34H4C3.46957 34 2.96086 33.7893 2.58579 33.4142C2.21071 33.0391 2 32.5304 2 32V25C2 19.477 6.477 15 12 15C17.523 15 22 19.477 22 25V32C22 32.5304 21.7893 33.0391 21.4142 33.4142C21.0391 33.7893 20.5304 34 20 34H17C16.4696 34 15.9609 33.7893 15.5858 33.4142C15.2107 33.0391 15 32.5304 15 32V27C15 26.4696 15.2107 25.9609 15.5858 25.5858C15.9609 25.2107 16.4696 25 17 25H20C20 22.8783 19.1571 20.8434 17.6569 19.3431C16.1566 17.8429 14.1217 17 12 17ZM4 27V32H7V27H4ZM17 27V32H20V27H17Z" fill="#9A9A9A"/>
</g>
<g clip-path="url(#clip1_1003_2304)">
<path d="M43 31.5V18C43 17.2044 43.3161 16.4413 43.8787 15.8787C44.4413 15.3161 45.2044 15 46 15H60C60.2652 15 60.5196 15.1054 60.7071 15.2929C60.8946 15.4804 61 15.7348 61 16V34C61 34.2652 60.8946 34.5196 60.7071 34.7071C60.5196 34.8946 60.2652 35 60 35H46.5C45.5717 35 44.6815 34.6313 44.0251 33.9749C43.3687 33.3185 43 32.4283 43 31.5ZM59 33V30H46.5C46.1022 30 45.7206 30.158 45.4393 30.4393C45.158 30.7206 45 31.1022 45 31.5C45 31.8978 45.158 32.2794 45.4393 32.5607C45.7206 32.842 46.1022 33 46.5 33H59ZM50 17H46C45.7348 17 45.4804 17.1054 45.2929 17.2929C45.1054 17.4804 45 17.7348 45 18V28.337C45.4687 28.1144 45.9812 27.9993 46.5 28H59V17H57V25L53.5 23L50 25V17Z" fill="#9A9A9A"/>
</g>
<path d="M114.39 22.6C114.665 22.3192 114.856 21.9676 114.943 21.5845C115.029 21.2013 115.008 20.8016 114.88 20.43C114.761 20.0573 114.539 19.7257 114.24 19.4729C113.942 19.2201 113.578 19.0562 113.19 19L108.9 18.34C108.88 18.3342 108.862 18.324 108.846 18.3102C108.831 18.2963 108.819 18.2792 108.81 18.26L106.93 14.26C106.766 13.8855 106.495 13.5669 106.153 13.3432C105.81 13.1195 105.41 13.0003 105 13C104.596 12.9983 104.2 13.1135 103.859 13.3317C103.518 13.5499 103.248 13.8619 103.08 14.23L101.2 18.23C101.19 18.2495 101.176 18.2667 101.159 18.2805C101.142 18.2942 101.122 18.3043 101.1 18.31L96.8204 19C96.4325 19.0578 96.0682 19.2221 95.7681 19.4745C95.468 19.727 95.2438 20.0577 95.1204 20.43C94.9977 20.8029 94.9795 21.2023 95.0676 21.5848C95.1557 21.9673 95.3469 22.3184 95.6204 22.6L98.7804 25.85C98.7895 25.8705 98.7942 25.8926 98.7942 25.915C98.7942 25.9374 98.7895 25.9596 98.7804 25.98L98.0404 30.52C97.9716 30.9154 98.0165 31.3222 98.1698 31.6931C98.323 32.064 98.5784 32.3838 98.9063 32.6152C99.2341 32.8467 99.6209 32.9804 100.022 33.0007C100.423 33.021 100.821 32.9272 101.17 32.73L104.9 30.66C104.919 30.6504 104.94 30.6453 104.96 30.6453C104.981 30.6453 105.002 30.6504 105.02 30.66L108.75 32.73C109.1 32.9229 109.498 33.0134 109.897 32.9913C110.296 32.9691 110.681 32.835 111.007 32.6045C111.334 32.374 111.589 32.0563 111.743 31.6877C111.897 31.319 111.945 30.9144 111.88 30.52L111.19 26C111.18 25.9818 111.174 25.9611 111.174 25.94C111.174 25.919 111.18 25.8983 111.19 25.88L114.39 22.6Z" fill="#FF7F4D"/>
<path d="M146.39 22.6C146.665 22.3192 146.856 21.9676 146.943 21.5845C147.029 21.2013 147.008 20.8016 146.88 20.43C146.761 20.0573 146.539 19.7257 146.24 19.4729C145.942 19.2201 145.578 19.0562 145.19 19L140.9 18.34C140.88 18.3342 140.862 18.324 140.846 18.3102C140.831 18.2963 140.819 18.2792 140.81 18.26L138.93 14.26C138.766 13.8855 138.495 13.5669 138.153 13.3432C137.81 13.1195 137.41 13.0003 137 13C136.596 12.9983 136.2 13.1135 135.859 13.3317C135.518 13.5499 135.248 13.8619 135.08 14.23L133.2 18.23C133.19 18.2495 133.176 18.2667 133.159 18.2805C133.142 18.2942 133.122 18.3043 133.1 18.31L128.82 19C128.433 19.0578 128.068 19.2221 127.768 19.4745C127.468 19.727 127.244 20.0577 127.12 20.43C126.998 20.8029 126.979 21.2023 127.068 21.5848C127.156 21.9673 127.347 22.3184 127.62 22.6L130.78 25.85C130.79 25.8705 130.794 25.8926 130.794 25.915C130.794 25.9374 130.79 25.9596 130.78 25.98L130.04 30.52C129.972 30.9154 130.016 31.3222 130.17 31.6931C130.323 32.064 130.578 32.3838 130.906 32.6152C131.234 32.8467 131.621 32.9804 132.022 33.0007C132.423 33.021 132.821 32.9272 133.17 32.73L136.9 30.66C136.919 30.6504 136.94 30.6453 136.96 30.6453C136.981 30.6453 137.002 30.6504 137.02 30.66L140.75 32.73C141.1 32.9229 141.498 33.0134 141.897 32.9913C142.296 32.9691 142.681 32.835 143.007 32.6045C143.334 32.374 143.589 32.0563 143.743 31.6877C143.897 31.319 143.945 30.9144 143.88 30.52L143.19 26C143.18 25.9818 143.174 25.9611 143.174 25.94C143.174 25.919 143.18 25.8983 143.19 25.88L146.39 22.6Z" fill="#FF7F4D"/>
<path d="M178.39 22.6C178.665 22.3192 178.856 21.9676 178.943 21.5845C179.029 21.2013 179.008 20.8016 178.88 20.43C178.761 20.0573 178.539 19.7257 178.24 19.4729C177.942 19.2201 177.578 19.0562 177.19 19L172.9 18.34C172.88 18.3342 172.862 18.324 172.846 18.3102C172.831 18.2963 172.819 18.2792 172.81 18.26L170.93 14.26C170.766 13.8855 170.495 13.5669 170.153 13.3432C169.81 13.1195 169.41 13.0003 169 13C168.596 12.9983 168.2 13.1135 167.859 13.3317C167.518 13.5499 167.248 13.8619 167.08 14.23L165.2 18.23C165.19 18.2495 165.176 18.2667 165.159 18.2805C165.142 18.2942 165.122 18.3043 165.1 18.31L160.82 19C160.433 19.0578 160.068 19.2221 159.768 19.4745C159.468 19.727 159.244 20.0577 159.12 20.43C158.998 20.8029 158.979 21.2023 159.068 21.5848C159.156 21.9673 159.347 22.3184 159.62 22.6L162.78 25.85C162.79 25.8705 162.794 25.8926 162.794 25.915C162.794 25.9374 162.79 25.9596 162.78 25.98L162.04 30.52C161.972 30.9154 162.016 31.3222 162.17 31.6931C162.323 32.064 162.578 32.3838 162.906 32.6152C163.234 32.8467 163.621 32.9804 164.022 33.0007C164.423 33.021 164.821 32.9272 165.17 32.73L168.9 30.66C168.919 30.6504 168.94 30.6453 168.96 30.6453C168.981 30.6453 169.002 30.6504 169.02 30.66L172.75 32.73C173.1 32.9229 173.498 33.0134 173.897 32.9913C174.296 32.9691 174.681 32.835 175.007 32.6045C175.334 32.374 175.589 32.0563 175.743 31.6877C175.897 31.319 175.945 30.9144 175.88 30.52L175.19 26C175.18 25.9818 175.174 25.9611 175.174 25.94C175.174 25.919 175.18 25.8983 175.19 25.88L178.39 22.6Z" fill="#FF7F4D"/>
<path d="M210.39 22.6C210.665 22.3192 210.856 21.9676 210.943 21.5845C211.029 21.2013 211.008 20.8016 210.88 20.43C210.761 20.0573 210.539 19.7257 210.24 19.4729C209.942 19.2201 209.578 19.0562 209.19 19L204.9 18.34C204.88 18.3342 204.862 18.324 204.846 18.3102C204.831 18.2963 204.819 18.2792 204.81 18.26L202.93 14.26C202.766 13.8855 202.495 13.5669 202.153 13.3432C201.81 13.1195 201.41 13.0003 201 13C200.596 12.9983 200.2 13.1135 199.859 13.3317C199.518 13.5499 199.248 13.8619 199.08 14.23L197.2 18.23C197.19 18.2495 197.176 18.2667 197.159 18.2805C197.142 18.2942 197.122 18.3043 197.1 18.31L192.82 19C192.433 19.0578 192.068 19.2221 191.768 19.4745C191.468 19.727 191.244 20.0577 191.12 20.43C190.998 20.8029 190.979 21.2023 191.068 21.5848C191.156 21.9673 191.347 22.3184 191.62 22.6L194.78 25.85C194.79 25.8705 194.794 25.8926 194.794 25.915C194.794 25.9374 194.79 25.9596 194.78 25.98L194.04 30.52C193.972 30.9154 194.016 31.3222 194.17 31.6931C194.323 32.064 194.578 32.3838 194.906 32.6152C195.234 32.8467 195.621 32.9804 196.022 33.0007C196.423 33.021 196.821 32.9272 197.17 32.73L200.9 30.66C200.919 30.6504 200.94 30.6453 200.96 30.6453C200.981 30.6453 201.002 30.6504 201.02 30.66L204.75 32.73C205.1 32.9229 205.498 33.0134 205.897 32.9913C206.296 32.9691 206.681 32.835 207.007 32.6045C207.334 32.374 207.589 32.0563 207.743 31.6877C207.897 31.319 207.945 30.9144 207.88 30.52L207.19 26C207.18 25.9818 207.174 25.9611 207.174 25.94C207.174 25.919 207.18 25.8983 207.19 25.88L210.39 22.6Z" fill="#FF7F4D"/>
<path d="M242.39 22.6C242.665 22.3192 242.856 21.9676 242.943 21.5845C243.029 21.2013 243.008 20.8016 242.88 20.43C242.761 20.0573 242.539 19.7257 242.24 19.4729C241.942 19.2201 241.578 19.0562 241.19 19L236.9 18.34C236.88 18.3342 236.862 18.324 236.846 18.3102C236.831 18.2963 236.819 18.2792 236.81 18.26L234.93 14.26C234.766 13.8855 234.495 13.5669 234.153 13.3432C233.81 13.1195 233.41 13.0003 233 13C232.596 12.9983 232.2 13.1135 231.859 13.3317C231.518 13.5499 231.248 13.8619 231.08 14.23L229.2 18.23C229.19 18.2495 229.176 18.2667 229.159 18.2805C229.142 18.2942 229.122 18.3043 229.1 18.31L224.82 19C224.433 19.0578 224.068 19.2221 223.768 19.4745C223.468 19.727 223.244 20.0577 223.12 20.43C222.998 20.8029 222.979 21.2023 223.068 21.5848C223.156 21.9673 223.347 22.3184 223.62 22.6L226.78 25.85C226.79 25.8705 226.794 25.8926 226.794 25.915C226.794 25.9374 226.79 25.9596 226.78 25.98L226.04 30.52C225.972 30.9154 226.016 31.3222 226.17 31.6931C226.323 32.064 226.578 32.3838 226.906 32.6152C227.234 32.8467 227.621 32.9804 228.022 33.0007C228.423 33.021 228.821 32.9272 229.17 32.73L232.9 30.66C232.919 30.6504 232.94 30.6453 232.96 30.6453C232.981 30.6453 233.002 30.6504 233.02 30.66L236.75 32.73C237.1 32.9229 237.498 33.0134 237.897 32.9913C238.296 32.9691 238.681 32.835 239.007 32.6045C239.334 32.374 239.589 32.0563 239.743 31.6877C239.897 31.319 239.945 30.9144 239.88 30.52L239.19 26C239.18 25.9818 239.174 25.9611 239.174 25.94C239.174 25.919 239.18 25.8983 239.19 25.88L242.39 22.6Z" fill="#F5F5F5"/>
<path d="M275.484 31V28.36H268.284V25.96L271.884 15.16H275.58L271.572 25.6H275.484L275.676 21.52L278.748 21.472V25.6H280.212V28.36H278.748V31H275.484ZM282.1 31V27.448H285.436V31H282.1ZM293.336 31.264C292.312 31.264 291.424 31.128 290.672 30.856C289.92 30.568 289.296 30.112 288.8 29.488C288.32 28.848 287.952 28.016 287.696 26.992C287.456 25.968 287.336 24.712 287.336 23.224C287.336 21.688 287.456 20.384 287.696 19.312C287.952 18.24 288.328 17.384 288.824 16.744C289.32 16.088 289.936 15.616 290.672 15.328C291.424 15.04 292.304 14.896 293.312 14.896C294.352 14.896 295.248 15.04 296 15.328C296.752 15.616 297.368 16.088 297.848 16.744C298.344 17.384 298.704 18.24 298.928 19.312C299.168 20.368 299.288 21.672 299.288 23.224C299.288 25.192 299.072 26.768 298.64 27.952C298.224 29.12 297.576 29.968 296.696 30.496C295.816 31.008 294.696 31.264 293.336 31.264ZM293.336 28.48C293.784 28.48 294.168 28.408 294.488 28.264C294.824 28.104 295.104 27.832 295.328 27.448C295.552 27.064 295.712 26.528 295.808 25.84C295.92 25.152 295.976 24.28 295.976 23.224C295.976 22.104 295.92 21.184 295.808 20.464C295.712 19.744 295.56 19.184 295.352 18.784C295.144 18.368 294.872 18.08 294.536 17.92C294.2 17.744 293.8 17.656 293.336 17.656C292.872 17.656 292.472 17.744 292.136 17.92C291.8 18.08 291.52 18.36 291.296 18.76C291.088 19.16 290.928 19.728 290.816 20.464C290.704 21.184 290.648 22.112 290.648 23.248C290.648 24.304 290.704 25.176 290.816 25.864C290.944 26.552 291.12 27.088 291.344 27.472C291.568 27.84 291.84 28.104 292.16 28.264C292.496 28.408 292.888 28.48 293.336 28.48Z" fill="#242424"/>
<path d="M387.589 27V25.978L390.165 23.276C390.557 22.8653 390.893 22.5013 391.173 22.184C391.453 21.8667 391.667 21.554 391.817 21.246C391.966 20.938 392.041 20.6067 392.041 20.252C392.041 19.664 391.877 19.2627 391.551 19.048C391.233 18.824 390.748 18.712 390.095 18.712C389.852 18.712 389.581 18.7307 389.283 18.768C388.993 18.796 388.709 18.8333 388.429 18.88C388.158 18.9173 387.929 18.9593 387.743 19.006L387.645 17.998C387.85 17.942 388.097 17.886 388.387 17.83C388.676 17.774 388.993 17.7273 389.339 17.69C389.684 17.6433 390.02 17.62 390.347 17.62C391.327 17.62 392.064 17.8207 392.559 18.222C393.063 18.614 393.315 19.244 393.315 20.112C393.315 20.5693 393.24 20.9847 393.091 21.358C392.951 21.722 392.736 22.0767 392.447 22.422C392.167 22.7673 391.803 23.1547 391.355 23.584L389.017 25.936H393.525V27H387.589ZM398.321 27.14C397.976 27.14 397.612 27.1167 397.229 27.07C396.846 27.0327 396.487 26.986 396.151 26.93C395.815 26.874 395.535 26.818 395.311 26.762L395.409 25.768C395.624 25.8053 395.885 25.8473 396.193 25.894C396.51 25.9407 396.846 25.9827 397.201 26.02C397.556 26.048 397.887 26.062 398.195 26.062C398.848 26.062 399.329 25.922 399.637 25.642C399.954 25.362 400.113 24.942 400.113 24.382C400.113 23.9807 400.034 23.6633 399.875 23.43C399.716 23.1967 399.497 23.024 399.217 22.912C398.946 22.8 398.643 22.7393 398.307 22.73H396.431V21.694H398.293C398.526 21.694 398.764 21.6333 399.007 21.512C399.259 21.3813 399.469 21.1993 399.637 20.966C399.814 20.7233 399.903 20.434 399.903 20.098C399.903 19.594 399.763 19.2347 399.483 19.02C399.203 18.796 398.736 18.684 398.083 18.684C397.784 18.684 397.472 18.7027 397.145 18.74C396.828 18.768 396.524 18.8053 396.235 18.852C395.955 18.8893 395.722 18.9313 395.535 18.978L395.437 17.998C395.633 17.942 395.876 17.886 396.165 17.83C396.464 17.7647 396.781 17.7133 397.117 17.676C397.462 17.6293 397.803 17.606 398.139 17.606C398.886 17.606 399.478 17.6947 399.917 17.872C400.356 18.04 400.673 18.3013 400.869 18.656C401.065 19.0107 401.163 19.468 401.163 20.028C401.163 20.3733 401.107 20.672 400.995 20.924C400.892 21.1667 400.762 21.372 400.603 21.54C400.454 21.6987 400.304 21.8247 400.155 21.918C400.015 22.0113 399.903 22.0813 399.819 22.128C400.136 22.24 400.412 22.3753 400.645 22.534C400.878 22.6927 401.06 22.912 401.191 23.192C401.322 23.472 401.387 23.8547 401.387 24.34C401.387 24.9747 401.28 25.502 401.065 25.922C400.85 26.3327 400.514 26.6407 400.057 26.846C399.609 27.042 399.03 27.14 398.321 27.14ZM406.225 27.126C405.88 27.126 405.511 27.1027 405.119 27.056C404.737 27.0093 404.368 26.958 404.013 26.902C403.659 26.8367 403.365 26.776 403.131 26.72L403.257 25.74C403.491 25.7773 403.771 25.824 404.097 25.88C404.433 25.9267 404.774 25.9687 405.119 26.006C405.474 26.034 405.801 26.048 406.099 26.048C406.715 26.048 407.201 25.8753 407.555 25.53C407.91 25.1847 408.087 24.6807 408.087 24.018C408.087 23.57 408.008 23.22 407.849 22.968C407.7 22.7067 407.485 22.5247 407.205 22.422C406.935 22.31 406.613 22.254 406.239 22.254C405.969 22.254 405.693 22.282 405.413 22.338C405.143 22.394 404.895 22.464 404.671 22.548C404.447 22.6227 404.261 22.702 404.111 22.786L403.285 22.632L403.537 17.76H408.983V18.866H404.531L404.293 21.694C404.452 21.6193 404.643 21.5447 404.867 21.47C405.101 21.386 405.348 21.316 405.609 21.26C405.871 21.1947 406.132 21.162 406.393 21.162C407 21.162 407.523 21.2553 407.961 21.442C408.4 21.6193 408.741 21.9087 408.983 22.31C409.226 22.7113 409.347 23.2433 409.347 23.906C409.347 24.6247 409.221 25.222 408.969 25.698C408.727 26.174 408.372 26.5333 407.905 26.776C407.439 27.0093 406.879 27.126 406.225 27.126ZM419.418 16.864V18.096C420.5 18.1147 421.354 18.292 421.98 18.628C422.605 18.964 423.048 19.412 423.31 19.972C423.571 20.5227 423.702 21.1387 423.702 21.82C423.702 22.268 423.632 22.716 423.492 23.164C423.361 23.6027 423.132 24.004 422.806 24.368C422.479 24.7227 422.04 25.012 421.49 25.236C420.939 25.46 420.248 25.5813 419.418 25.6V27.14H418.172V25.6C417.322 25.5813 416.618 25.46 416.058 25.236C415.507 25.0027 415.073 24.704 414.756 24.34C414.438 23.9667 414.214 23.5607 414.084 23.122C413.953 22.6833 413.888 22.2493 413.888 21.82C413.888 21.3253 413.958 20.8587 414.098 20.42C414.247 19.972 414.485 19.58 414.812 19.244C415.148 18.8987 415.591 18.6233 416.142 18.418C416.692 18.2127 417.369 18.1053 418.172 18.096V16.864H419.418ZM418.172 19.16C417.425 19.1787 416.828 19.3 416.38 19.524C415.941 19.748 415.628 20.056 415.442 20.448C415.255 20.8307 415.162 21.2833 415.162 21.806C415.162 22.3567 415.264 22.8373 415.47 23.248C415.684 23.6493 416.011 23.962 416.45 24.186C416.898 24.41 417.472 24.536 418.172 24.564V19.16ZM419.418 24.564C420.136 24.536 420.715 24.4053 421.154 24.172C421.602 23.9387 421.924 23.6213 422.12 23.22C422.325 22.8093 422.428 22.338 422.428 21.806C422.428 21.274 422.334 20.8167 422.148 20.434C421.961 20.042 421.648 19.7387 421.21 19.524C420.771 19.3 420.174 19.1787 419.418 19.16V24.564ZM426.778 24.074C426.778 24.158 426.773 24.2793 426.764 24.438C426.764 24.5873 426.759 24.7507 426.75 24.928C426.74 25.096 426.731 25.2593 426.722 25.418C426.712 25.5673 426.703 25.6887 426.694 25.782L430.712 19.496H432.224V27H431.076V22.576C431.076 22.4267 431.076 22.2307 431.076 21.988C431.085 21.7453 431.094 21.5073 431.104 21.274C431.113 21.0313 431.122 20.8493 431.132 20.728L427.142 27H425.616V19.496H426.778V24.074ZM439.05 19.496H440.394L437.188 23.108L440.66 27H439.232L435.844 23.192V27H434.612V19.496H435.844V23.136L439.05 19.496ZM445.592 19.356C446.516 19.356 447.258 19.678 447.818 20.322C448.387 20.966 448.672 21.9367 448.672 23.234C448.672 24.0833 448.541 24.802 448.28 25.39C448.028 25.9687 447.669 26.4073 447.202 26.706C446.745 26.9953 446.203 27.14 445.578 27.14C445.195 27.14 444.855 27.0887 444.556 26.986C444.257 26.8833 444.001 26.7527 443.786 26.594C443.581 26.426 443.403 26.244 443.254 26.048H443.17C443.189 26.2067 443.207 26.4073 443.226 26.65C443.245 26.8927 443.254 27.1027 443.254 27.28V30.36H442.022V19.496H443.03L443.198 20.518H443.254C443.403 20.3033 443.581 20.1073 443.786 19.93C444.001 19.7527 444.253 19.6127 444.542 19.51C444.841 19.4073 445.191 19.356 445.592 19.356ZM445.368 20.392C444.864 20.392 444.458 20.49 444.15 20.686C443.842 20.8727 443.618 21.1573 443.478 21.54C443.338 21.9227 443.263 22.408 443.254 22.996V23.234C443.254 23.85 443.319 24.3727 443.45 24.802C443.581 25.2313 443.8 25.558 444.108 25.782C444.425 26.006 444.855 26.118 445.396 26.118C445.853 26.118 446.227 25.992 446.516 25.74C446.815 25.488 447.034 25.1473 447.174 24.718C447.323 24.2793 447.398 23.78 447.398 23.22C447.398 22.3613 447.23 21.6753 446.894 21.162C446.567 20.6487 446.059 20.392 445.368 20.392ZM456.347 27H455.101V20.518H452.889C452.796 21.7033 452.679 22.716 452.539 23.556C452.399 24.3867 452.222 25.0633 452.007 25.586C451.793 26.1087 451.536 26.4913 451.237 26.734C450.939 26.9767 450.589 27.098 450.187 27.098C450.066 27.098 449.945 27.0887 449.823 27.07C449.711 27.0607 449.618 27.0373 449.543 27V26.076C449.599 26.0947 449.66 26.1087 449.725 26.118C449.791 26.1273 449.856 26.132 449.921 26.132C450.127 26.132 450.313 26.048 450.481 25.88C450.649 25.712 450.799 25.4553 450.929 25.11C451.069 24.7647 451.195 24.3307 451.307 23.808C451.419 23.276 451.517 22.6507 451.601 21.932C451.685 21.2133 451.76 20.4013 451.825 19.496H456.347V27ZM461.571 19.37C462.486 19.37 463.162 19.5707 463.601 19.972C464.04 20.3733 464.259 21.0127 464.259 21.89V27H463.363L463.125 25.936H463.069C462.854 26.2067 462.63 26.4353 462.397 26.622C462.173 26.7993 461.912 26.93 461.613 27.014C461.324 27.098 460.969 27.14 460.549 27.14C460.101 27.14 459.695 27.0607 459.331 26.902C458.976 26.7433 458.696 26.5007 458.491 26.174C458.286 25.838 458.183 25.418 458.183 24.914C458.183 24.1673 458.477 23.5933 459.065 23.192C459.653 22.7813 460.558 22.5573 461.781 22.52L463.055 22.478V22.03C463.055 21.4047 462.92 20.9707 462.649 20.728C462.378 20.4853 461.996 20.364 461.501 20.364C461.109 20.364 460.736 20.4247 460.381 20.546C460.026 20.658 459.695 20.7887 459.387 20.938L459.009 20.014C459.336 19.8367 459.723 19.6873 460.171 19.566C460.619 19.4353 461.086 19.37 461.571 19.37ZM461.935 23.374C461.002 23.4113 460.353 23.5607 459.989 23.822C459.634 24.0833 459.457 24.452 459.457 24.928C459.457 25.348 459.583 25.656 459.835 25.852C460.096 26.048 460.428 26.146 460.829 26.146C461.464 26.146 461.991 25.9733 462.411 25.628C462.831 25.2733 463.041 24.732 463.041 24.004V23.332L461.935 23.374ZM470.147 19.356C471.071 19.356 471.813 19.678 472.373 20.322C472.942 20.966 473.227 21.9367 473.227 23.234C473.227 24.0833 473.096 24.802 472.835 25.39C472.583 25.9687 472.223 26.4073 471.757 26.706C471.299 26.9953 470.758 27.14 470.133 27.14C469.75 27.14 469.409 27.0887 469.111 26.986C468.812 26.8833 468.555 26.7527 468.341 26.594C468.135 26.426 467.958 26.244 467.809 26.048H467.725C467.743 26.2067 467.762 26.4073 467.781 26.65C467.799 26.8927 467.809 27.1027 467.809 27.28V30.36H466.577V19.496H467.585L467.753 20.518H467.809C467.958 20.3033 468.135 20.1073 468.341 19.93C468.555 19.7527 468.807 19.6127 469.097 19.51C469.395 19.4073 469.745 19.356 470.147 19.356ZM469.923 20.392C469.419 20.392 469.013 20.49 468.705 20.686C468.397 20.8727 468.173 21.1573 468.033 21.54C467.893 21.9227 467.818 22.408 467.809 22.996V23.234C467.809 23.85 467.874 24.3727 468.005 24.802C468.135 25.2313 468.355 25.558 468.663 25.782C468.98 26.006 469.409 26.118 469.951 26.118C470.408 26.118 470.781 25.992 471.071 25.74C471.369 25.488 471.589 25.1473 471.729 24.718C471.878 24.2793 471.953 23.78 471.953 23.22C471.953 22.3613 471.785 21.6753 471.449 21.162C471.122 20.6487 470.613 20.392 469.923 20.392Z" fill="#11142D"/>
<path d="M365 12H353C351.674 12.0016 350.404 12.5289 349.466 13.4662C348.529 14.4036 348.002 15.6744 348 17V25C348.001 26.1522 348.4 27.2687 349.129 28.1613C349.857 29.0538 350.871 29.6679 352 29.9V33C352 33.1811 352.049 33.3587 352.142 33.514C352.235 33.6693 352.369 33.7965 352.528 33.8819C352.688 33.9673 352.868 34.0078 353.049 33.999C353.229 33.9902 353.404 33.9325 353.555 33.832L359.3 30H365C366.326 29.9984 367.596 29.4711 368.534 28.5338C369.471 27.5965 369.998 26.3256 370 25V17C369.998 15.6744 369.471 14.4036 368.534 13.4662C367.596 12.5289 366.326 12.0016 365 12ZM363 24H355C354.735 24 354.48 23.8947 354.293 23.7071C354.105 23.5196 354 23.2652 354 23C354 22.7348 354.105 22.4804 354.293 22.2929C354.48 22.1054 354.735 22 355 22H363C363.265 22 363.52 22.1054 363.707 22.2929C363.895 22.4804 364 22.7348 364 23C364 23.2652 363.895 23.5196 363.707 23.7071C363.52 23.8947 363.265 24 363 24ZM365 20H353C352.735 20 352.48 19.8946 352.293 19.7071C352.105 19.5196 352 19.2652 352 19C352 18.7348 352.105 18.4804 352.293 18.2929C352.48 18.1054 352.735 18 353 18H365C365.265 18 365.52 18.1054 365.707 18.2929C365.895 18.4804 366 18.7348 366 19C366 19.2652 365.895 19.5196 365.707 19.7071C365.52 19.8946 365.265 20 365 20Z" fill="#3F51B5"/>
<defs>
<clipPath id="clip0_1003_2304">
<rect width="24" height="24" fill="white" transform="translate(0 13)"/>
</clipPath>
<clipPath id="clip1_1003_2304">
<rect width="24" height="24" fill="white" transform="translate(40 13)"/>
</clipPath>
</defs>
</svg>
