<svg width="18" height="21" viewBox="0 0 18 21" fill="none" xmlns="http://www.w3.org/2000/svg">
<path fill-rule="evenodd" clip-rule="evenodd" d="M9 11.2002C5.13401 11.2002 2 14.1252 2 17.7335V19.6002C2 20.1156 1.55228 20.5335 1 20.5335C0.44772 20.5335 0 20.1156 0 19.6002V17.7335C0 13.0943 4.02944 9.3335 9 9.3335C13.9706 9.3335 18 13.0943 18 17.7335V19.6002C18 20.1156 17.5523 20.5335 17 20.5335C16.4477 20.5335 16 20.1156 16 19.6002V17.7335C16 14.1252 12.866 11.2002 9 11.2002Z" fill="white"/>
<path fill-rule="evenodd" clip-rule="evenodd" d="M9 9.33333C11.2091 9.33333 13 7.66186 13 5.6C13 3.53814 11.2091 1.86667 9 1.86667C6.79086 1.86667 5 3.53814 5 5.6C5 7.66186 6.79086 9.33333 9 9.33333ZM9 11.2C12.3137 11.2 15 8.69279 15 5.6C15 2.5072 12.3137 0 9 0C5.68629 0 3 2.5072 3 5.6C3 8.69279 5.68629 11.2 9 11.2Z" fill="white"/>
</svg>
