<svg width="58" height="20" viewBox="0 0 58 20" fill="none" xmlns="http://www.w3.org/2000/svg">
<path d="M19.39 9.60002C19.6647 9.31922 19.856 8.96762 19.9425 8.58445C20.0291 8.20128 20.0074 7.80161 19.88 7.43002C19.7605 7.05733 19.5387 6.72569 19.2399 6.47288C18.9411 6.22006 18.5774 6.05622 18.19 6.00002L13.9 5.34002C13.88 5.33422 13.8616 5.32403 13.846 5.31019C13.8304 5.29635 13.8181 5.27921 13.81 5.26002L11.93 1.26002C11.7652 0.885457 11.4949 0.56692 11.1523 0.343206C10.8096 0.119491 10.4093 0.000254073 10 1.79599e-05C9.59553 -0.00165464 9.19915 0.113532 8.85855 0.331732C8.51794 0.549932 8.2476 0.861859 8.08003 1.23002L6.20003 5.23002C6.18977 5.24952 6.17559 5.26669 6.15838 5.28046C6.14117 5.29423 6.12131 5.30429 6.10003 5.31002L1.82003 6.00002C1.43212 6.05781 1.06785 6.22206 0.767729 6.47452C0.467605 6.72698 0.243392 7.05774 0.120028 7.43002C-0.00267426 7.8029 -0.0209456 8.20226 0.0671951 8.58479C0.155336 8.96733 0.346525 9.31843 0.620028 9.60002L3.78003 12.85C3.78913 12.8705 3.79383 12.8926 3.79383 12.915C3.79383 12.9374 3.78913 12.9596 3.78003 12.98L3.04003 17.52C2.97124 17.9154 3.01608 18.3222 3.16935 18.6931C3.32263 19.064 3.57803 19.3838 3.90586 19.6152C4.2337 19.8467 4.62051 19.9804 5.02131 20.0007C5.42212 20.021 5.82046 19.9272 6.17003 19.73L9.90003 17.66C9.91856 17.6504 9.93914 17.6453 9.96003 17.6453C9.98092 17.6453 10.0015 17.6504 10.02 17.66L13.75 19.73C14.1001 19.9229 14.4973 20.0134 14.8963 19.9913C15.2954 19.9691 15.6801 19.835 16.0066 19.6045C16.3331 19.374 16.5882 19.0563 16.7426 18.6877C16.897 18.319 16.9447 17.9144 16.88 17.52L16.19 13C16.1795 12.9818 16.174 12.9611 16.174 12.94C16.174 12.919 16.1795 12.8983 16.19 12.88L19.39 9.60002Z" fill="#FF7F4D"/>
<path d="M41.9932 13.3369H40.4463V16H37.792V13.3369H32.3076V11.4473L37.9414 3.15039H40.4463V11.2275H41.9932V13.3369ZM37.792 11.2275V9.04785C37.792 8.84277 37.7949 8.59961 37.8008 8.31836C37.8125 8.03711 37.8242 7.75586 37.8359 7.47461C37.8477 7.19336 37.8594 6.94434 37.8711 6.72754C37.8887 6.50488 37.9004 6.34961 37.9062 6.26172H37.8359C37.7246 6.50195 37.6074 6.73633 37.4844 6.96484C37.3613 7.1875 37.2178 7.42188 37.0537 7.66797L34.6982 11.2275H37.792ZM43.3291 14.7432C43.3291 14.1924 43.4785 13.8057 43.7773 13.583C44.082 13.3604 44.4482 13.249 44.876 13.249C45.292 13.249 45.6494 13.3604 45.9482 13.583C46.2529 13.8057 46.4053 14.1924 46.4053 14.7432C46.4053 15.2705 46.2529 15.6514 45.9482 15.8857C45.6494 16.1201 45.292 16.2373 44.876 16.2373C44.4482 16.2373 44.082 16.1201 43.7773 15.8857C43.4785 15.6514 43.3291 15.2705 43.3291 14.7432ZM49.4287 16L54.2539 5.43555H47.917V3.15039H57.1367V4.85547L52.2764 16H49.4287Z" fill="#FF7F4D"/>
</svg>
